0
SECTION
2
ENTITIES
0
ARC
8
PARAMETRIX
10
-0.0000
20
-0.0000
40
24.0000
50
0.0000
51
4.5000
0
ARC
8
PARAMETRIX
10
22.1854
20
1.7460
40
1.7460
50
4.5000
51
62.9251
0
LINE
8
PARAMETRIX
10
22.9801
20
3.3007
11
20.8056
21
4.4122
0
ARC
8
PARAMETRIX
10
21.1452
20
5.0765
40
0.7460
50
144.0749
51
242.9251
0
LINE
8
PARAMETRIX
10
20.5411
20
5.5142
11
21.9739
21
7.4918
0
ARC
8
PARAMETRIX
10
20.5600
20
8.5162
40
1.7460
50
324.0749
51
22.5000
0
ARC
8
PARAMETRIX
10
0.0000
20
0.0000
40
24.0000
50
22.5000
51
27.0000
0
ARC
8
PARAMETRIX
10
19.8284
20
10.1031
40
1.7460
50
27.0000
51
85.4251
0
LINE
8
PARAMETRIX
10
19.9677
20
11.8436
11
17.5334
21
12.0383
0
ARC
8
PARAMETRIX
10
17.5929
20
12.7820
40
0.7460
50
166.5749
51
265.4251
0
LINE
8
PARAMETRIX
10
16.8673
20
12.9552
11
17.4343
21
15.3306
0
ARC
8
PARAMETRIX
10
15.7359
20
15.7359
40
1.7460
50
346.5749
51
45.0000
0
ARC
8
PARAMETRIX
10
0.0000
20
0.0000
40
24.0000
50
45.0000
51
49.5000
0
ARC
8
PARAMETRIX
10
14.4528
20
16.9221
40
1.7460
50
49.5000
51
107.9251
0
LINE
8
PARAMETRIX
10
13.9154
20
18.5833
11
11.5919
21
17.8317
0
ARC
8
PARAMETRIX
10
11.3623
20
18.5415
40
0.7460
50
189.0749
51
287.9251
0
LINE
8
PARAMETRIX
10
10.6256
20
18.4239
11
10.2404
21
20.8354
0
ARC
8
PARAMETRIX
10
8.5162
20
20.5600
40
1.7460
50
9.0749
51
67.5000
0
ARC
8
PARAMETRIX
10
0.0000
20
0.0000
40
24.0000
50
67.5000
51
72.0000
0
ARC
8
PARAMETRIX
10
6.8769
20
21.1648
40
1.7460
50
72.0000
51
130.4251
0
LINE
8
PARAMETRIX
10
5.7446
20
22.4940
11
3.8856
21
20.9104
0
ARC
8
PARAMETRIX
10
3.4018
20
21.4783
40
0.7460
50
211.5749
51
310.4251
0
LINE
8
PARAMETRIX
10
2.7662
20
21.0877
11
1.4875
21
23.1682
0
ARC
8
PARAMETRIX
10
0.0000
20
22.2540
40
1.7460
50
31.5749
51
90.0000
0
ARC
8
PARAMETRIX
10
0.0000
20
-0.0000
40
24.0000
50
90.0000
51
94.5000
0
ARC
8
PARAMETRIX
10
-1.7460
20
22.1854
40
1.7460
50
94.5000
51
152.9251
0
LINE
8
PARAMETRIX
10
-3.3007
20
22.9801
11
-4.4122
21
20.8056
0
ARC
8
PARAMETRIX
10
-5.0765
20
21.1452
40
0.7460
50
234.0749
51
332.9251
0
LINE
8
PARAMETRIX
10
-5.5142
20
20.5411
11
-7.4918
21
21.9739
0
ARC
8
PARAMETRIX
10
-8.5162
20
20.5600
40
1.7460
50
54.0749
51
112.5000
0
ARC
8
PARAMETRIX
10
0.0000
20
-0.0000
40
24.0000
50
112.5000
51
117.0000
0
ARC
8
PARAMETRIX
10
-10.1031
20
19.8284
40
1.7460
50
117.0000
51
175.4251
0
LINE
8
PARAMETRIX
10
-11.8436
20
19.9677
11
-12.0383
21
17.5334
0
ARC
8
PARAMETRIX
10
-12.7820
20
17.5929
40
0.7460
50
256.5749
51
355.4251
0
LINE
8
PARAMETRIX
10
-12.9552
20
16.8673
11
-15.3306
21
17.4343
0
ARC
8
PARAMETRIX
10
-15.7359
20
15.7359
40
1.7460
50
76.5749
51
135.0000
0
ARC
8
PARAMETRIX
10
0.0000
20
-0.0000
40
24.0000
50
135.0000
51
139.5000
0
ARC
8
PARAMETRIX
10
-16.9221
20
14.4528
40
1.7460
50
139.5000
51
197.9251
0
LINE
8
PARAMETRIX
10
-18.5833
20
13.9154
11
-17.8317
21
11.5919
0
ARC
8
PARAMETRIX
10
-18.5415
20
11.3623
40
0.7460
50
279.0749
51
17.9251
0
LINE
8
PARAMETRIX
10
-18.4239
20
10.6256
11
-20.8354
21
10.2404
0
ARC
8
PARAMETRIX
10
-20.5600
20
8.5162
40
1.7460
50
99.0749
51
157.5000
0
ARC
8
PARAMETRIX
10
0.0000
20
-0.0000
40
24.0000
50
157.5000
51
162.0000
0
ARC
8
PARAMETRIX
10
-21.1648
20
6.8769
40
1.7460
50
162.0000
51
220.4251
0
LINE
8
PARAMETRIX
10
-22.4940
20
5.7446
11
-20.9104
21
3.8856
0
ARC
8
PARAMETRIX
10
-21.4783
20
3.4018
40
0.7460
50
301.5749
51
40.4251
0
LINE
8
PARAMETRIX
10
-21.0877
20
2.7662
11
-23.1682
21
1.4875
0
ARC
8
PARAMETRIX
10
-22.2540
20
0.0000
40
1.7460
50
121.5749
51
180.0000
0
ARC
8
PARAMETRIX
10
0.0000
20
0.0000
40
24.0000
50
180.0000
51
184.5000
0
ARC
8
PARAMETRIX
10
-22.1854
20
-1.7460
40
1.7460
50
184.5000
51
242.9251
0
LINE
8
PARAMETRIX
10
-22.9801
20
-3.3007
11
-20.8056
21
-4.4122
0
ARC
8
PARAMETRIX
10
-21.1452
20
-5.0765
40
0.7460
50
324.0749
51
62.9251
0
LINE
8
PARAMETRIX
10
-20.5411
20
-5.5142
11
-21.9739
21
-7.4918
0
ARC
8
PARAMETRIX
10
-20.5600
20
-8.5162
40
1.7460
50
144.0749
51
202.5000
0
ARC
8
PARAMETRIX
10
-0.0000
20
-0.0000
40
24.0000
50
202.5000
51
207.0000
0
ARC
8
PARAMETRIX
10
-19.8284
20
-10.1031
40
1.7460
50
207.0000
51
265.4251
0
LINE
8
PARAMETRIX
10
-19.9677
20
-11.8436
11
-17.5334
21
-12.0383
0
ARC
8
PARAMETRIX
10
-17.5929
20
-12.7820
40
0.7460
50
346.5749
51
85.4251
0
LINE
8
PARAMETRIX
10
-16.8673
20
-12.9552
11
-17.4343
21
-15.3306
0
ARC
8
PARAMETRIX
10
-15.7359
20
-15.7359
40
1.7460
50
166.5749
51
225.0000
0
ARC
8
PARAMETRIX
10
0.0000
20
0.0000
40
24.0000
50
225.0000
51
229.5000
0
ARC
8
PARAMETRIX
10
-14.4528
20
-16.9221
40
1.7460
50
229.5000
51
287.9251
0
LINE
8
PARAMETRIX
10
-13.9154
20
-18.5833
11
-11.5919
21
-17.8317
0
ARC
8
PARAMETRIX
10
-11.3623
20
-18.5415
40
0.7460
50
9.0749
51
107.9251
0
LINE
8
PARAMETRIX
10
-10.6256
20
-18.4239
11
-10.2404
21
-20.8354
0
ARC
8
PARAMETRIX
10
-8.5162
20
-20.5600
40
1.7460
50
189.0749
51
247.5000
0
ARC
8
PARAMETRIX
10
0.0000
20
0.0000
40
24.0000
50
247.5000
51
252.0000
0
ARC
8
PARAMETRIX
10
-6.8769
20
-21.1648
40
1.7460
50
252.0000
51
310.4251
0
LINE
8
PARAMETRIX
10
-5.7446
20
-22.4940
11
-3.8856
21
-20.9104
0
ARC
8
PARAMETRIX
10
-3.4018
20
-21.4783
40
0.7460
50
31.5749
51
130.4251
0
LINE
8
PARAMETRIX
10
-2.7662
20
-21.0877
11
-1.4875
21
-23.1682
0
ARC
8
PARAMETRIX
10
-0.0000
20
-22.2540
40
1.7460
50
211.5749
51
270.0000
0
ARC
8
PARAMETRIX
10
-0.0000
20
0.0000
40
24.0000
50
270.0000
51
274.5000
0
ARC
8
PARAMETRIX
10
1.7460
20
-22.1854
40
1.7460
50
274.5000
51
332.9251
0
LINE
8
PARAMETRIX
10
3.3007
20
-22.9801
11
4.4122
21
-20.8056
0
ARC
8
PARAMETRIX
10
5.0765
20
-21.1452
40
0.7460
50
54.0749
51
152.9251
0
LINE
8
PARAMETRIX
10
5.5142
20
-20.5411
11
7.4918
21
-21.9739
0
ARC
8
PARAMETRIX
10
8.5162
20
-20.5600
40
1.7460
50
234.0749
51
292.5000
0
ARC
8
PARAMETRIX
10
-0.0000
20
0.0000
40
24.0000
50
292.5000
51
297.0000
0
ARC
8
PARAMETRIX
10
10.1031
20
-19.8284
40
1.7460
50
297.0000
51
355.4251
0
LINE
8
PARAMETRIX
10
11.8436
20
-19.9677
11
12.0383
21
-17.5334
0
ARC
8
PARAMETRIX
10
12.7820
20
-17.5929
40
0.7460
50
76.5749
51
175.4251
0
LINE
8
PARAMETRIX
10
12.9552
20
-16.8673
11
15.3306
21
-17.4343
0
ARC
8
PARAMETRIX
10
15.7359
20
-15.7359
40
1.7460
50
256.5749
51
315.0000
0
ARC
8
PARAMETRIX
10
0.0000
20
-0.0000
40
24.0000
50
315.0000
51
319.5000
0
ARC
8
PARAMETRIX
10
16.9221
20
-14.4528
40
1.7460
50
319.5000
51
17.9251
0
LINE
8
PARAMETRIX
10
18.5833
20
-13.9154
11
17.8317
21
-11.5919
0
ARC
8
PARAMETRIX
10
18.5415
20
-11.3623
40
0.7460
50
99.0749
51
197.9251
0
LINE
8
PARAMETRIX
10
18.4239
20
-10.6256
11
20.8354
21
-10.2404
0
ARC
8
PARAMETRIX
10
20.5600
20
-8.5162
40
1.7460
50
279.0749
51
337.5000
0
ARC
8
PARAMETRIX
10
-0.0000
20
0.0000
40
24.0000
50
337.5000
51
342.0000
0
ARC
8
PARAMETRIX
10
21.1648
20
-6.8769
40
1.7460
50
342.0000
51
40.4251
0
LINE
8
PARAMETRIX
10
22.4940
20
-5.7446
11
20.9104
21
-3.8856
0
ARC
8
PARAMETRIX
10
21.4783
20
-3.4018
40
0.7460
50
121.5749
51
220.4251
0
LINE
8
PARAMETRIX
10
21.0877
20
-2.7662
11
23.1682
21
-1.4875
0
ARC
8
PARAMETRIX
10
22.2540
20
-0.0000
40
1.7460
50
301.5749
51
360.0000
0
ARC
8
PARAMETRIX
10
0.0000
20
0.0000
40
23.0000
50
360.0000
51
4.5000
0
ARC
8
PARAMETRIX
10
22.1854
20
1.7460
40
0.7460
50
4.5000
51
62.9251
0
LINE
8
PARAMETRIX
10
22.5249
20
2.4103
11
20.3505
21
3.5218
0
ARC
8
PARAMETRIX
10
21.1452
20
5.0765
40
1.7460
50
144.0749
51
242.9251
0
LINE
8
PARAMETRIX
10
19.7313
20
6.1009
11
21.1641
21
8.0785
0
ARC
8
PARAMETRIX
10
20.5600
20
8.5162
40
0.7460
50
324.0749
51
22.5000
0
ARC
8
PARAMETRIX
10
0.0000
20
0.0000
40
23.0000
50
22.5000
51
27.0000
0
ARC
8
PARAMETRIX
10
19.8284
20
10.1031
40
0.7460
50
27.0000
51
85.4251
0
LINE
8
PARAMETRIX
10
19.8879
20
10.8467
11
17.4536
21
11.0415
0
ARC
8
PARAMETRIX
10
17.5929
20
12.7820
40
1.7460
50
166.5749
51
265.4251
0
LINE
8
PARAMETRIX
10
15.8946
20
13.1874
11
16.4616
21
15.5627
0
ARC
8
PARAMETRIX
10
15.7359
20
15.7359
40
0.7460
50
346.5749
51
45.0000
0
ARC
8
PARAMETRIX
10
-0.0000
20
-0.0000
40
23.0000
50
45.0000
51
49.5000
0
ARC
8
PARAMETRIX
10
14.4528
20
16.9221
40
0.7460
50
49.5000
51
107.9251
0
LINE
8
PARAMETRIX
10
14.2232
20
17.6319
11
11.8996
21
16.8803
0
ARC
8
PARAMETRIX
10
11.3623
20
18.5415
40
1.7460
50
189.0749
51
287.9251
0
LINE
8
PARAMETRIX
10
9.6381
20
18.2661
11
9.2529
21
20.6777
0
ARC
8
PARAMETRIX
10
8.5162
20
20.5600
40
0.7460
50
9.0749
51
67.5000
0
ARC
8
PARAMETRIX
10
0.0000
20
0.0000
40
23.0000
50
67.5000
51
72.0000
0
ARC
8
PARAMETRIX
10
6.8769
20
21.1648
40
0.7460
50
72.0000
51
130.4251
0
LINE
8
PARAMETRIX
10
6.3931
20
21.7327
11
4.5340
21
20.1491
0
ARC
8
PARAMETRIX
10
3.4018
20
21.4783
40
1.7460
50
211.5749
51
310.4251
0
LINE
8
PARAMETRIX
10
1.9143
20
20.5641
11
0.6356
21
22.6446
0
ARC
8
PARAMETRIX
10
0.0000
20
22.2540
40
0.7460
50
31.5749
51
90.0000
0
ARC
8
PARAMETRIX
10
-0.0000
20
0.0000
40
23.0000
50
90.0000
51
94.5000
0
ARC
8
PARAMETRIX
10
-1.7460
20
22.1854
40
0.7460
50
94.5000
51
152.9251
0
LINE
8
PARAMETRIX
10
-2.4103
20
22.5249
11
-3.5218
21
20.3505
0
ARC
8
PARAMETRIX
10
-5.0765
20
21.1452
40
1.7460
50
234.0749
51
332.9251
0
LINE
8
PARAMETRIX
10
-6.1009
20
19.7313
11
-8.0785
21
21.1641
0
ARC
8
PARAMETRIX
10
-8.5162
20
20.5600
40
0.7460
50
54.0749
51
112.5000
0
ARC
8
PARAMETRIX
10
-0.0000
20
0.0000
40
23.0000
50
112.5000
51
117.0000
0
ARC
8
PARAMETRIX
10
-10.1031
20
19.8284
40
0.7460
50
117.0000
51
175.4251
0
LINE
8
PARAMETRIX
10
-10.8467
20
19.8879
11
-11.0415
21
17.4536
0
ARC
8
PARAMETRIX
10
-12.7820
20
17.5929
40
1.7460
50
256.5749
51
355.4251
0
LINE
8
PARAMETRIX
10
-13.1874
20
15.8946
11
-15.5627
21
16.4616
0
ARC
8
PARAMETRIX
10
-15.7359
20
15.7359
40
0.7460
50
76.5749
51
135.0000
0
ARC
8
PARAMETRIX
10
0.0000
20
-0.0000
40
23.0000
50
135.0000
51
139.5000
0
ARC
8
PARAMETRIX
10
-16.9221
20
14.4528
40
0.7460
50
139.5000
51
197.9251
0
LINE
8
PARAMETRIX
10
-17.6319
20
14.2232
11
-16.8803
21
11.8996
0
ARC
8
PARAMETRIX
10
-18.5415
20
11.3623
40
1.7460
50
279.0749
51
17.9251
0
LINE
8
PARAMETRIX
10
-18.2661
20
9.6381
11
-20.6777
21
9.2529
0
ARC
8
PARAMETRIX
10
-20.5600
20
8.5162
40
0.7460
50
99.0749
51
157.5000
0
ARC
8
PARAMETRIX
10
-0.0000
20
0.0000
40
23.0000
50
157.5000
51
162.0000
0
ARC
8
PARAMETRIX
10
-21.1648
20
6.8769
40
0.7460
50
162.0000
51
220.4251
0
LINE
8
PARAMETRIX
10
-21.7327
20
6.3931
11
-20.1491
21
4.5340
0
ARC
8
PARAMETRIX
10
-21.4783
20
3.4018
40
1.7460
50
301.5749
51
40.4251
0
LINE
8
PARAMETRIX
10
-20.5641
20
1.9143
11
-22.6446
21
0.6356
0
ARC
8
PARAMETRIX
10
-22.2540
20
0.0000
40
0.7460
50
121.5749
51
180.0000
0
ARC
8
PARAMETRIX
10
-0.0000
20
-0.0000
40
23.0000
50
180.0000
51
184.5000
0
ARC
8
PARAMETRIX
10
-22.1854
20
-1.7460
40
0.7460
50
184.5000
51
242.9251
0
LINE
8
PARAMETRIX
10
-22.5249
20
-2.4103
11
-20.3505
21
-3.5218
0
ARC
8
PARAMETRIX
10
-21.1452
20
-5.0765
40
1.7460
50
324.0749
51
62.9251
0
LINE
8
PARAMETRIX
10
-19.7313
20
-6.1009
11
-21.1641
21
-8.0785
0
ARC
8
PARAMETRIX
10
-20.5600
20
-8.5162
40
0.7460
50
144.0749
51
202.5000
0
ARC
8
PARAMETRIX
10
-0.0000
20
-0.0000
40
23.0000
50
202.5000
51
207.0000
0
ARC
8
PARAMETRIX
10
-19.8284
20
-10.1031
40
0.7460
50
207.0000
51
265.4251
0
LINE
8
PARAMETRIX
10
-19.8879
20
-10.8467
11
-17.4536
21
-11.0415
0
ARC
8
PARAMETRIX
10
-17.5929
20
-12.7820
40
1.7460
50
346.5749
51
85.4251
0
LINE
8
PARAMETRIX
10
-15.8946
20
-13.1874
11
-16.4616
21
-15.5627
0
ARC
8
PARAMETRIX
10
-15.7359
20
-15.7359
40
0.7460
50
166.5749
51
225.0000
0
ARC
8
PARAMETRIX
10
0.0000
20
0.0000
40
23.0000
50
225.0000
51
229.5000
0
ARC
8
PARAMETRIX
10
-14.4528
20
-16.9221
40
0.7460
50
229.5000
51
287.9251
0
LINE
8
PARAMETRIX
10
-14.2232
20
-17.6319
11
-11.8996
21
-16.8803
0
ARC
8
PARAMETRIX
10
-11.3623
20
-18.5415
40
1.7460
50
9.0749
51
107.9251
0
LINE
8
PARAMETRIX
10
-9.6381
20
-18.2661
11
-9.2529
21
-20.6777
0
ARC
8
PARAMETRIX
10
-8.5162
20
-20.5600
40
0.7460
50
189.0749
51
247.5000
0
ARC
8
PARAMETRIX
10
-0.0000
20
-0.0000
40
23.0000
50
247.5000
51
252.0000
0
ARC
8
PARAMETRIX
10
-6.8769
20
-21.1648
40
0.7460
50
252.0000
51
310.4251
0
LINE
8
PARAMETRIX
10
-6.3931
20
-21.7327
11
-4.5340
21
-20.1491
0
ARC
8
PARAMETRIX
10
-3.4018
20
-21.4783
40
1.7460
50
31.5749
51
130.4251
0
LINE
8
PARAMETRIX
10
-1.9143
20
-20.5641
11
-0.6356
21
-22.6446
0
ARC
8
PARAMETRIX
10
-0.0000
20
-22.2540
40
0.7460
50
211.5749
51
270.0000
0
ARC
8
PARAMETRIX
10
0.0000
20
-0.0000
40
23.0000
50
270.0000
51
274.5000
0
ARC
8
PARAMETRIX
10
1.7460
20
-22.1854
40
0.7460
50
274.5000
51
332.9251
0
LINE
8
PARAMETRIX
10
2.4103
20
-22.5249
11
3.5218
21
-20.3505
0
ARC
8
PARAMETRIX
10
5.0765
20
-21.1452
40
1.7460
50
54.0749
51
152.9251
0
LINE
8
PARAMETRIX
10
6.1009
20
-19.7313
11
8.0785
21
-21.1641
0
ARC
8
PARAMETRIX
10
8.5162
20
-20.5600
40
0.7460
50
234.0749
51
292.5000
0
ARC
8
PARAMETRIX
10
0.0000
20
-0.0000
40
23.0000
50
292.5000
51
297.0000
0
ARC
8
PARAMETRIX
10
10.1031
20
-19.8284
40
0.7460
50
297.0000
51
355.4251
0
LINE
8
PARAMETRIX
10
10.8467
20
-19.8879
11
11.0415
21
-17.4536
0
ARC
8
PARAMETRIX
10
12.7820
20
-17.5929
40
1.7460
50
76.5749
51
175.4251
0
LINE
8
PARAMETRIX
10
13.1874
20
-15.8946
11
15.5627
21
-16.4616
0
ARC
8
PARAMETRIX
10
15.7359
20
-15.7359
40
0.7460
50
256.5749
51
315.0000
0
ARC
8
PARAMETRIX
10
-0.0000
20
0.0000
40
23.0000
50
315.0000
51
319.5000
0
ARC
8
PARAMETRIX
10
16.9221
20
-14.4528
40
0.7460
50
319.5000
51
17.9251
0
LINE
8
PARAMETRIX
10
17.6319
20
-14.2232
11
16.8803
21
-11.8996
0
ARC
8
PARAMETRIX
10
18.5415
20
-11.3623
40
1.7460
50
99.0749
51
197.9251
0
LINE
8
PARAMETRIX
10
18.2661
20
-9.6381
11
20.6777
21
-9.2529
0
ARC
8
PARAMETRIX
10
20.5600
20
-8.5162
40
0.7460
50
279.0749
51
337.5000
0
ARC
8
PARAMETRIX
10
-0.0000
20
0.0000
40
23.0000
50
337.5000
51
342.0000
0
ARC
8
PARAMETRIX
10
21.1648
20
-6.8769
40
0.7460
50
342.0000
51
40.4251
0
LINE
8
PARAMETRIX
10
21.7327
20
-6.3931
11
20.1491
21
-4.5340
0
ARC
8
PARAMETRIX
10
21.4783
20
-3.4018
40
1.7460
50
121.5749
51
220.4251
0
LINE
8
PARAMETRIX
10
20.5641
20
-1.9143
11
22.6446
21
-0.6356
0
ARC
8
PARAMETRIX
10
22.2540
20
-0.0000
40
0.7460
50
301.5749
51
0.0000
0
ENDSEC
0
EOF
