<svg width="63" height="63" viewBox="-27 -27 63 63" xmlns="http://www.w3.org/2000/svg"><path d="M 24.0000 0.0000 A 24.0000 24.0000 0 0 0 23.9260 -1.8830 A 1.7460 1.7460 0 0 0 22.9801 -3.3007 L 20.8056 -4.4122 A 0.7460 0.7460 0 0 1 20.5411 -5.5142 L 21.9739 -7.4918 A 1.7460 1.7460 0 0 0 22.1731 -9.1844 A 24.0000 24.0000 0 0 0 21.3842 -10.8958 A 1.7460 1.7460 0 0 0 19.9677 -11.8436 L 17.5334 -12.0383 A 0.7460 0.7460 0 0 1 16.8673 -12.9552 L 17.4343 -15.3306 A 1.7460 1.7460 0 0 0 16.9706 -16.9706 A 24.0000 24.0000 0 0 0 15.5868 -18.2497 A 1.7460 1.7460 0 0 0 13.9154 -18.5833 L 11.5919 -17.8317 A 0.7460 0.7460 0 0 1 10.6256 -18.4239 L 10.2404 -20.8354 A 1.7460 1.7460 0 0 0 9.1844 -22.1731 A 24.0000 24.0000 0 0 0 7.4164 -22.8254 A 1.7460 1.7460 0 0 0 5.7446 -22.4940 L 3.8856 -20.9104 A 0.7460 0.7460 0 0 1 2.7662 -21.0877 L 1.4875 -23.1682 A 1.7460 1.7460 0 0 0 0.0000 -24.0000 A 24.0000 24.0000 0 0 0 -1.8830 -23.9260 A 1.7460 1.7460 0 0 0 -3.3007 -22.9801 L -4.4122 -20.8056 A 0.7460 0.7460 0 0 1 -5.5142 -20.5411 L -7.4918 -21.9739 A 1.7460 1.7460 0 0 0 -9.1844 -22.1731 A 24.0000 24.0000 0 0 0 -10.8958 -21.3842 A 1.7460 1.7460 0 0 0 -11.8436 -19.9677 L -12.0383 -17.5334 A 0.7460 0.7460 0 0 1 -12.9552 -16.8673 L -15.3306 -17.4343 A 1.7460 1.7460 0 0 0 -16.9706 -16.9706 A 24.0000 24.0000 0 0 0 -18.2497 -15.5868 A 1.7460 1.7460 0 0 0 -18.5833 -13.9154 L -17.8317 -11.5919 A 0.7460 0.7460 0 0 1 -18.4239 -10.6256 L -20.8354 -10.2404 A 1.7460 1.7460 0 0 0 -22.1731 -9.1844 A 24.0000 24.0000 0 0 0 -22.8254 -7.4164 A 1.7460 1.7460 0 0 0 -22.4940 -5.7446 L -20.9104 -3.8856 A 0.7460 0.7460 0 0 1 -21.0877 -2.7662 L -23.1682 -1.4875 A 1.7460 1.7460 0 0 0 -24.0000 -0.0000 A 24.0000 24.0000 0 0 0 -23.9260 1.8830 A 1.7460 1.7460 0 0 0 -22.9801 3.3007 L -20.8056 4.4122 A 0.7460 0.7460 0 0 1 -20.5411 5.5142 L -21.9739 7.4918 A 1.7460 1.7460 0 0 0 -22.1731 9.1844 A 24.0000 24.0000 0 0 0 -21.3842 10.8958 A 1.7460 1.7460 0 0 0 -19.9677 11.8436 L -17.5334 12.0383 A 0.7460 0.7460 0 0 1 -16.8673 12.9552 L -17.4343 15.3306 A 1.7460 1.7460 0 0 0 -16.9706 16.9706 A 24.0000 24.0000 0 0 0 -15.5868 18.2497 A 1.7460 1.7460 0 0 0 -13.9154 18.5833 L -11.5919 17.8317 A 0.7460 0.7460 0 0 1 -10.6256 18.4239 L -10.2404 20.8354 A 1.7460 1.7460 0 0 0 -9.1844 22.1731 A 24.0000 24.0000 0 0 0 -7.4164 22.8254 A 1.7460 1.7460 0 0 0 -5.7446 22.4940 L -3.8856 20.9104 A 0.7460 0.7460 0 0 1 -2.7662 21.0877 L -1.4875 23.1682 A 1.7460 1.7460 0 0 0 -0.0000 24.0000 A 24.0000 24.0000 0 0 0 1.8830 23.9260 A 1.7460 1.7460 0 0 0 3.3007 22.9801 L 4.4122 20.8056 A 0.7460 0.7460 0 0 1 5.5142 20.5411 L 7.4918 21.9739 A 1.7460 1.7460 0 0 0 9.1844 22.1731 A 24.0000 24.0000 0 0 0 10.8958 21.3842 A 1.7460 1.7460 0 0 0 11.8436 19.9677 L 12.0383 17.5334 A 0.7460 0.7460 0 0 1 12.9552 16.8673 L 15.3306 17.4343 A 1.7460 1.7460 0 0 0 16.9706 16.9706 A 24.0000 24.0000 0 0 0 18.2497 15.5868 A 1.7460 1.7460 0 0 0 18.5833 13.9154 L 17.8317 11.5919 A 0.7460 0.7460 0 0 1 18.4239 10.6256 L 20.8354 10.2404 A 1.7460 1.7460 0 0 0 22.1731 9.1844 A 24.0000 24.0000 0 0 0 22.8254 7.4164 A 1.7460 1.7460 0 0 0 22.4940 5.7446 L 20.9104 3.8856 A 0.7460 0.7460 0 0 1 21.0877 2.7662 L 23.1682 1.4875 A 1.7460 1.7460 0 0 0 24.0000 0.0000 Z" stroke="green" stroke-width="1" fill="none" /><path d="M 23.0000 0.0000 A 23.0000 23.0000 0 0 0 22.9291 -1.8046 A 0.7460 0.7460 0 0 0 22.5249 -2.4103 L 20.3505 -3.5218 A 1.7460 1.7460 0 0 1 19.7313 -6.1009 L 21.1641 -8.0785 A 0.7460 0.7460 0 0 0 21.2492 -8.8017 A 23.0000 23.0000 0 0 0 20.4932 -10.4418 A 0.7460 0.7460 0 0 0 19.8879 -10.8467 L 17.4536 -11.0415 A 1.7460 1.7460 0 0 1 15.8946 -13.1874 L 16.4616 -15.5627 A 0.7460 0.7460 0 0 0 16.2635 -16.2635 A 23.0000 23.0000 0 0 0 14.9373 -17.4893 A 0.7460 0.7460 0 0 0 14.2232 -17.6319 L 11.8996 -16.8803 A 1.7460 1.7460 0 0 1 9.6381 -18.2661 L 9.2529 -20.6777 A 0.7460 0.7460 0 0 0 8.8017 -21.2492 A 23.0000 23.0000 0 0 0 7.1074 -21.8743 A 0.7460 0.7460 0 0 0 6.3931 -21.7327 L 4.5340 -20.1491 A 1.7460 1.7460 0 0 1 1.9143 -20.5641 L 0.6356 -22.6446 A 0.7460 0.7460 0 0 0 0.0000 -23.0000 A 23.0000 23.0000 0 0 0 -1.8046 -22.9291 A 0.7460 0.7460 0 0 0 -2.4103 -22.5249 L -3.5218 -20.3505 A 1.7460 1.7460 0 0 1 -6.1009 -19.7313 L -8.0785 -21.1641 A 0.7460 0.7460 0 0 0 -8.8017 -21.2492 A 23.0000 23.0000 0 0 0 -10.4418 -20.4932 A 0.7460 0.7460 0 0 0 -10.8467 -19.8879 L -11.0415 -17.4536 A 1.7460 1.7460 0 0 1 -13.1874 -15.8946 L -15.5627 -16.4616 A 0.7460 0.7460 0 0 0 -16.2635 -16.2635 A 23.0000 23.0000 0 0 0 -17.4893 -14.9373 A 0.7460 0.7460 0 0 0 -17.6319 -14.2232 L -16.8803 -11.8996 A 1.7460 1.7460 0 0 1 -18.2661 -9.6381 L -20.6777 -9.2529 A 0.7460 0.7460 0 0 0 -21.2492 -8.8017 A 23.0000 23.0000 0 0 0 -21.8743 -7.1074 A 0.7460 0.7460 0 0 0 -21.7327 -6.3931 L -20.1491 -4.5340 A 1.7460 1.7460 0 0 1 -20.5641 -1.9143 L -22.6446 -0.6356 A 0.7460 0.7460 0 0 0 -23.0000 -0.0000 A 23.0000 23.0000 0 0 0 -22.9291 1.8046 A 0.7460 0.7460 0 0 0 -22.5249 2.4103 L -20.3505 3.5218 A 1.7460 1.7460 0 0 1 -19.7313 6.1009 L -21.1641 8.0785 A 0.7460 0.7460 0 0 0 -21.2492 8.8017 A 23.0000 23.0000 0 0 0 -20.4932 10.4418 A 0.7460 0.7460 0 0 0 -19.8879 10.8467 L -17.4536 11.0415 A 1.7460 1.7460 0 0 1 -15.8946 13.1874 L -16.4616 15.5627 A 0.7460 0.7460 0 0 0 -16.2635 16.2635 A 23.0000 23.0000 0 0 0 -14.9373 17.4893 A 0.7460 0.7460 0 0 0 -14.2232 17.6319 L -11.8996 16.8803 A 1.7460 1.7460 0 0 1 -9.6381 18.2661 L -9.2529 20.6777 A 0.7460 0.7460 0 0 0 -8.8017 21.2492 A 23.0000 23.0000 0 0 0 -7.1074 21.8743 A 0.7460 0.7460 0 0 0 -6.3931 21.7327 L -4.5340 20.1491 A 1.7460 1.7460 0 0 1 -1.9143 20.5641 L -0.6356 22.6446 A 0.7460 0.7460 0 0 0 -0.0000 23.0000 A 23.0000 23.0000 0 0 0 1.8046 22.9291 A 0.7460 0.7460 0 0 0 2.4103 22.5249 L 3.5218 20.3505 A 1.7460 1.7460 0 0 1 6.1009 19.7313 L 8.0785 21.1641 A 0.7460 0.7460 0 0 0 8.8017 21.2492 A 23.0000 23.0000 0 0 0 10.4418 20.4932 A 0.7460 0.7460 0 0 0 10.8467 19.8879 L 11.0415 17.4536 A 1.7460 1.7460 0 0 1 13.1874 15.8946 L 15.5627 16.4616 A 0.7460 0.7460 0 0 0 16.2635 16.2635 A 23.0000 23.0000 0 0 0 17.4893 14.9373 A 0.7460 0.7460 0 0 0 17.6319 14.2232 L 16.8803 11.8996 A 1.7460 1.7460 0 0 1 18.2661 9.6381 L 20.6777 9.2529 A 0.7460 0.7460 0 0 0 21.2492 8.8017 A 23.0000 23.0000 0 0 0 21.8743 7.1074 A 0.7460 0.7460 0 0 0 21.7327 6.3931 L 20.1491 4.5340 A 1.7460 1.7460 0 0 1 20.5641 1.9143 L 22.6446 0.6356 A 0.7460 0.7460 0 0 0 23.0000 0.0000 Z" stroke="green" stroke-width="1" fill="none" /></svg>