0
SECTION
2
ENTITIES
0
ARC
8
PARAMETRIX
10
0.0000
20
0.0000
40
24.0000
50
360.0000
51
18.0000
0
ARC
8
PARAMETRIX
10
21.1648
20
6.8769
40
1.7460
50
18.0000
51
108.2467
0
LINE
8
PARAMETRIX
10
20.6181
20
8.5351
11
14.2634
21
6.4400
0
ARC
8
PARAMETRIX
10
14.0298
20
7.1485
40
0.7460
50
125.7533
51
288.2467
0
LINE
8
PARAMETRIX
10
13.5939
20
7.7540
11
19.0240
21
11.6636
0
ARC
8
PARAMETRIX
10
18.0038
20
13.0806
40
1.7460
50
305.7533
51
36.0000
0
ARC
8
PARAMETRIX
10
-0.0000
20
-0.0000
40
24.0000
50
36.0000
51
54.0000
0
ARC
8
PARAMETRIX
10
13.0806
20
18.0038
40
1.7460
50
54.0000
51
144.2467
0
LINE
8
PARAMETRIX
10
11.6636
20
19.0240
11
7.7540
21
13.5939
0
ARC
8
PARAMETRIX
10
7.1485
20
14.0298
40
0.7460
50
161.7533
51
324.2467
0
LINE
8
PARAMETRIX
10
6.4400
20
14.2634
11
8.5351
21
20.6181
0
ARC
8
PARAMETRIX
10
6.8769
20
21.1648
40
1.7460
50
341.7533
51
72.0000
0
ARC
8
PARAMETRIX
10
0.0000
20
0.0000
40
24.0000
50
72.0000
51
90.0000
0
ARC
8
PARAMETRIX
10
0.0000
20
22.2540
40
1.7460
50
90.0000
51
180.2467
0
LINE
8
PARAMETRIX
10
-1.7460
20
22.2465
11
-1.7172
21
15.5554
0
ARC
8
PARAMETRIX
10
-2.4632
20
15.5522
40
0.7460
50
197.7533
51
0.2467
0
LINE
8
PARAMETRIX
10
-3.1737
20
15.3247
11
-5.2140
21
21.6972
0
ARC
8
PARAMETRIX
10
-6.8769
20
21.1648
40
1.7460
50
17.7533
51
108.0000
0
ARC
8
PARAMETRIX
10
-0.0000
20
0.0000
40
24.0000
50
108.0000
51
126.0000
0
ARC
8
PARAMETRIX
10
-13.0806
20
18.0038
40
1.7460
50
126.0000
51
216.2467
0
LINE
8
PARAMETRIX
10
-14.4887
20
16.9715
11
-10.5325
21
11.5752
0
ARC
8
PARAMETRIX
10
-11.1341
20
11.1341
40
0.7460
50
233.7533
51
36.2467
0
LINE
8
PARAMETRIX
10
-11.5752
20
10.5325
11
-16.9715
21
14.4887
0
ARC
8
PARAMETRIX
10
-18.0038
20
13.0806
40
1.7460
50
53.7533
51
144.0000
0
ARC
8
PARAMETRIX
10
0.0000
20
0.0000
40
24.0000
50
144.0000
51
162.0000
0
ARC
8
PARAMETRIX
10
-21.1648
20
6.8769
40
1.7460
50
162.0000
51
252.2467
0
LINE
8
PARAMETRIX
10
-21.6972
20
5.2140
11
-15.3247
21
3.1737
0
ARC
8
PARAMETRIX
10
-15.5522
20
2.4632
40
0.7460
50
269.7533
51
72.2467
0
LINE
8
PARAMETRIX
10
-15.5554
20
1.7172
11
-22.2465
21
1.7460
0
ARC
8
PARAMETRIX
10
-22.2540
20
0.0000
40
1.7460
50
89.7533
51
180.0000
0
ARC
8
PARAMETRIX
10
-0.0000
20
-0.0000
40
24.0000
50
180.0000
51
198.0000
0
ARC
8
PARAMETRIX
10
-21.1648
20
-6.8769
40
1.7460
50
198.0000
51
288.2467
0
LINE
8
PARAMETRIX
10
-20.6181
20
-8.5351
11
-14.2634
21
-6.4400
0
ARC
8
PARAMETRIX
10
-14.0298
20
-7.1485
40
0.7460
50
305.7533
51
108.2467
0
LINE
8
PARAMETRIX
10
-13.5939
20
-7.7540
11
-19.0240
21
-11.6636
0
ARC
8
PARAMETRIX
10
-18.0038
20
-13.0806
40
1.7460
50
125.7533
51
216.0000
0
ARC
8
PARAMETRIX
10
-0.0000
20
-0.0000
40
24.0000
50
216.0000
51
234.0000
0
ARC
8
PARAMETRIX
10
-13.0806
20
-18.0038
40
1.7460
50
234.0000
51
324.2467
0
LINE
8
PARAMETRIX
10
-11.6636
20
-19.0240
11
-7.7540
21
-13.5939
0
ARC
8
PARAMETRIX
10
-7.1485
20
-14.0298
40
0.7460
50
341.7533
51
144.2467
0
LINE
8
PARAMETRIX
10
-6.4400
20
-14.2634
11
-8.5351
21
-20.6181
0
ARC
8
PARAMETRIX
10
-6.8769
20
-21.1648
40
1.7460
50
161.7533
51
252.0000
0
ARC
8
PARAMETRIX
10
0.0000
20
0.0000
40
24.0000
50
252.0000
51
270.0000
0
ARC
8
PARAMETRIX
10
-0.0000
20
-22.2540
40
1.7460
50
270.0000
51
0.2467
0
LINE
8
PARAMETRIX
10
1.7460
20
-22.2465
11
1.7172
21
-15.5554
0
ARC
8
PARAMETRIX
10
2.4632
20
-15.5522
40
0.7460
50
17.7533
51
180.2467
0
LINE
8
PARAMETRIX
10
3.1737
20
-15.3247
11
5.2140
21
-21.6972
0
ARC
8
PARAMETRIX
10
6.8769
20
-21.1648
40
1.7460
50
197.7533
51
288.0000
0
ARC
8
PARAMETRIX
10
-0.0000
20
0.0000
40
24.0000
50
288.0000
51
306.0000
0
ARC
8
PARAMETRIX
10
13.0806
20
-18.0038
40
1.7460
50
306.0000
51
36.2467
0
LINE
8
PARAMETRIX
10
14.4887
20
-16.9715
11
10.5325
21
-11.5752
0
ARC
8
PARAMETRIX
10
11.1341
20
-11.1341
40
0.7460
50
53.7533
51
216.2467
0
LINE
8
PARAMETRIX
10
11.5752
20
-10.5325
11
16.9715
21
-14.4887
0
ARC
8
PARAMETRIX
10
18.0038
20
-13.0806
40
1.7460
50
233.7533
51
324.0000
0
ARC
8
PARAMETRIX
10
-0.0000
20
0.0000
40
24.0000
50
324.0000
51
342.0000
0
ARC
8
PARAMETRIX
10
21.1648
20
-6.8769
40
1.7460
50
342.0000
51
72.2467
0
LINE
8
PARAMETRIX
10
21.6972
20
-5.2140
11
15.3247
21
-3.1737
0
ARC
8
PARAMETRIX
10
15.5522
20
-2.4632
40
0.7460
50
89.7533
51
252.2467
0
LINE
8
PARAMETRIX
10
15.5554
20
-1.7172
11
22.2465
21
-1.7460
0
ARC
8
PARAMETRIX
10
22.2540
20
-0.0000
40
1.7460
50
269.7533
51
360.0000
0
ARC
8
PARAMETRIX
10
0.0000
20
0.0000
40
23.0000
50
360.0000
51
18.0000
0
ARC
8
PARAMETRIX
10
21.1648
20
6.8769
40
0.7460
50
18.0000
51
108.2467
0
LINE
8
PARAMETRIX
10
20.9312
20
7.5854
11
14.5765
21
5.4903
0
ARC
8
PARAMETRIX
10
14.0298
20
7.1485
40
1.7460
50
125.7533
51
288.2467
0
LINE
8
PARAMETRIX
10
13.0096
20
8.5655
11
18.4397
21
12.4751
0
ARC
8
PARAMETRIX
10
18.0038
20
13.0806
40
0.7460
50
305.7533
51
36.0000
0
ARC
8
PARAMETRIX
10
-0.0000
20
-0.0000
40
23.0000
50
36.0000
51
54.0000
0
ARC
8
PARAMETRIX
10
13.0806
20
18.0038
40
0.7460
50
54.0000
51
144.2467
0
LINE
8
PARAMETRIX
10
12.4751
20
18.4397
11
8.5655
21
13.0096
0
ARC
8
PARAMETRIX
10
7.1485
20
14.0298
40
1.7460
50
161.7533
51
324.2467
0
LINE
8
PARAMETRIX
10
5.4903
20
14.5765
11
7.5854
21
20.9312
0
ARC
8
PARAMETRIX
10
6.8769
20
21.1648
40
0.7460
50
341.7533
51
72.0000
0
ARC
8
PARAMETRIX
10
0.0000
20
0.0000
40
23.0000
50
72.0000
51
90.0000
0
ARC
8
PARAMETRIX
10
0.0000
20
22.2540
40
0.7460
50
90.0000
51
180.2467
0
LINE
8
PARAMETRIX
10
-0.7460
20
22.2508
11
-0.7172
21
15.5597
0
ARC
8
PARAMETRIX
10
-2.4632
20
15.5522
40
1.7460
50
197.7533
51
0.2467
0
LINE
8
PARAMETRIX
10
-4.1261
20
15.0198
11
-6.1664
21
21.3923
0
ARC
8
PARAMETRIX
10
-6.8769
20
21.1648
40
0.7460
50
17.7533
51
108.0000
0
ARC
8
PARAMETRIX
10
0.0000
20
-0.0000
40
23.0000
50
108.0000
51
126.0000
0
ARC
8
PARAMETRIX
10
-13.0806
20
18.0038
40
0.7460
50
126.0000
51
216.2467
0
LINE
8
PARAMETRIX
10
-13.6822
20
17.5627
11
-9.7260
21
12.1665
0
ARC
8
PARAMETRIX
10
-11.1341
20
11.1341
40
1.7460
50
233.7533
51
36.2467
0
LINE
8
PARAMETRIX
10
-12.1665
20
9.7260
11
-17.5627
21
13.6822
0
ARC
8
PARAMETRIX
10
-18.0038
20
13.0806
40
0.7460
50
53.7533
51
144.0000
0
ARC
8
PARAMETRIX
10
-0.0000
20
0.0000
40
23.0000
50
144.0000
51
162.0000
0
ARC
8
PARAMETRIX
10
-21.1648
20
6.8769
40
0.7460
50
162.0000
51
252.2467
0
LINE
8
PARAMETRIX
10
-21.3923
20
6.1664
11
-15.0198
21
4.1261
0
ARC
8
PARAMETRIX
10
-15.5522
20
2.4632
40
1.7460
50
269.7533
51
72.2467
0
LINE
8
PARAMETRIX
10
-15.5597
20
0.7172
11
-22.2508
21
0.7460
0
ARC
8
PARAMETRIX
10
-22.2540
20
0.0000
40
0.7460
50
89.7533
51
180.0000
0
ARC
8
PARAMETRIX
10
0.0000
20
0.0000
40
23.0000
50
180.0000
51
198.0000
0
ARC
8
PARAMETRIX
10
-21.1648
20
-6.8769
40
0.7460
50
198.0000
51
288.2467
0
LINE
8
PARAMETRIX
10
-20.9312
20
-7.5854
11
-14.5765
21
-5.4903
0
ARC
8
PARAMETRIX
10
-14.0298
20
-7.1485
40
1.7460
50
305.7533
51
108.2467
0
LINE
8
PARAMETRIX
10
-13.0096
20
-8.5655
11
-18.4397
21
-12.4751
0
ARC
8
PARAMETRIX
10
-18.0038
20
-13.0806
40
0.7460
50
125.7533
51
216.0000
0
ARC
8
PARAMETRIX
10
-0.0000
20
-0.0000
40
23.0000
50
216.0000
51
234.0000
0
ARC
8
PARAMETRIX
10
-13.0806
20
-18.0038
40
0.7460
50
234.0000
51
324.2467
0
LINE
8
PARAMETRIX
10
-12.4751
20
-18.4397
11
-8.5655
21
-13.0096
0
ARC
8
PARAMETRIX
10
-7.1485
20
-14.0298
40
1.7460
50
341.7533
51
144.2467
0
LINE
8
PARAMETRIX
10
-5.4903
20
-14.5765
11
-7.5854
21
-20.9312
0
ARC
8
PARAMETRIX
10
-6.8769
20
-21.1648
40
0.7460
50
161.7533
51
252.0000
0
ARC
8
PARAMETRIX
10
0.0000
20
0.0000
40
23.0000
50
252.0000
51
270.0000
0
ARC
8
PARAMETRIX
10
-0.0000
20
-22.2540
40
0.7460
50
270.0000
51
0.2467
0
LINE
8
PARAMETRIX
10
0.7460
20
-22.2508
11
0.7172
21
-15.5597
0
ARC
8
PARAMETRIX
10
2.4632
20
-15.5522
40
1.7460
50
17.7533
51
180.2467
0
LINE
8
PARAMETRIX
10
4.1261
20
-15.0198
11
6.1664
21
-21.3923
0
ARC
8
PARAMETRIX
10
6.8769
20
-21.1648
40
0.7460
50
197.7533
51
288.0000
0
ARC
8
PARAMETRIX
10
0.0000
20
-0.0000
40
23.0000
50
288.0000
51
306.0000
0
ARC
8
PARAMETRIX
10
13.0806
20
-18.0038
40
0.7460
50
306.0000
51
36.2467
0
LINE
8
PARAMETRIX
10
13.6822
20
-17.5627
11
9.7260
21
-12.1665
0
ARC
8
PARAMETRIX
10
11.1341
20
-11.1341
40
1.7460
50
53.7533
51
216.2467
0
LINE
8
PARAMETRIX
10
12.1665
20
-9.7260
11
17.5627
21
-13.6822
0
ARC
8
PARAMETRIX
10
18.0038
20
-13.0806
40
0.7460
50
233.7533
51
324.0000
0
ARC
8
PARAMETRIX
10
0.0000
20
-0.0000
40
23.0000
50
324.0000
51
342.0000
0
ARC
8
PARAMETRIX
10
21.1648
20
-6.8769
40
0.7460
50
342.0000
51
72.2467
0
LINE
8
PARAMETRIX
10
21.3923
20
-6.1664
11
15.0198
21
-4.1261
0
ARC
8
PARAMETRIX
10
15.5522
20
-2.4632
40
1.7460
50
89.7533
51
252.2467
0
LINE
8
PARAMETRIX
10
15.5597
20
-0.7172
11
22.2508
21
-0.7460
0
ARC
8
PARAMETRIX
10
22.2540
20
-0.0000
40
0.7460
50
269.7533
51
360.0000
0
ENDSEC
0
EOF
