<svg width="63" height="63" viewBox="-27 -27 63 63" xmlns="http://www.w3.org/2000/svg"><path d="M 24.0000 0.0000 A 24.0000 24.0000 0 0 0 22.8254 -7.4164 A 1.7460 1.7460 0 0 0 20.6181 -8.5351 L 14.2634 -6.4400 A 0.7460 0.7460 0 0 1 13.5939 -7.7540 L 19.0240 -11.6636 A 1.7460 1.7460 0 0 0 19.4164 -14.1068 A 24.0000 24.0000 0 0 0 14.1068 -19.4164 A 1.7460 1.7460 0 0 0 11.6636 -19.0240 L 7.7540 -13.5939 A 0.7460 0.7460 0 0 1 6.4400 -14.2634 L 8.5351 -20.6181 A 1.7460 1.7460 0 0 0 7.4164 -22.8254 A 24.0000 24.0000 0 0 0 0.0000 -24.0000 A 1.7460 1.7460 0 0 0 -1.7460 -22.2465 L -1.7172 -15.5554 A 0.7460 0.7460 0 0 1 -3.1737 -15.3247 L -5.2140 -21.6972 A 1.7460 1.7460 0 0 0 -7.4164 -22.8254 A 24.0000 24.0000 0 0 0 -14.1068 -19.4164 A 1.7460 1.7460 0 0 0 -14.4887 -16.9715 L -10.5325 -11.5752 A 0.7460 0.7460 0 0 1 -11.5752 -10.5325 L -16.9715 -14.4887 A 1.7460 1.7460 0 0 0 -19.4164 -14.1068 A 24.0000 24.0000 0 0 0 -22.8254 -7.4164 A 1.7460 1.7460 0 0 0 -21.6972 -5.2140 L -15.3247 -3.1737 A 0.7460 0.7460 0 0 1 -15.5554 -1.7172 L -22.2465 -1.7460 A 1.7460 1.7460 0 0 0 -24.0000 -0.0000 A 24.0000 24.0000 0 0 0 -22.8254 7.4164 A 1.7460 1.7460 0 0 0 -20.6181 8.5351 L -14.2634 6.4400 A 0.7460 0.7460 0 0 1 -13.5939 7.7540 L -19.0240 11.6636 A 1.7460 1.7460 0 0 0 -19.4164 14.1068 A 24.0000 24.0000 0 0 0 -14.1068 19.4164 A 1.7460 1.7460 0 0 0 -11.6636 19.0240 L -7.7540 13.5939 A 0.7460 0.7460 0 0 1 -6.4400 14.2634 L -8.5351 20.6181 A 1.7460 1.7460 0 0 0 -7.4164 22.8254 A 24.0000 24.0000 0 0 0 -0.0000 24.0000 A 1.7460 1.7460 0 0 0 1.7460 22.2465 L 1.7172 15.5554 A 0.7460 0.7460 0 0 1 3.1737 15.3247 L 5.2140 21.6972 A 1.7460 1.7460 0 0 0 7.4164 22.8254 A 24.0000 24.0000 0 0 0 14.1068 19.4164 A 1.7460 1.7460 0 0 0 14.4887 16.9715 L 10.5325 11.5752 A 0.7460 0.7460 0 0 1 11.5752 10.5325 L 16.9715 14.4887 A 1.7460 1.7460 0 0 0 19.4164 14.1068 A 24.0000 24.0000 0 0 0 22.8254 7.4164 A 1.7460 1.7460 0 0 0 21.6972 5.2140 L 15.3247 3.1737 A 0.7460 0.7460 0 0 1 15.5554 1.7172 L 22.2465 1.7460 A 1.7460 1.7460 0 0 0 24.0000 0.0000 Z" stroke="green" stroke-width="1" fill="none" /><path d="M 23.0000 0.0000 A 23.0000 23.0000 0 0 0 21.8743 -7.1074 A 0.7460 0.7460 0 0 0 20.9312 -7.5854 L 14.5765 -5.4903 A 1.7460 1.7460 0 0 1 13.0096 -8.5655 L 18.4397 -12.4751 A 0.7460 0.7460 0 0 0 18.6074 -13.5191 A 23.0000 23.0000 0 0 0 13.5191 -18.6074 A 0.7460 0.7460 0 0 0 12.4751 -18.4397 L 8.5655 -13.0096 A 1.7460 1.7460 0 0 1 5.4903 -14.5765 L 7.5854 -20.9312 A 0.7460 0.7460 0 0 0 7.1074 -21.8743 A 23.0000 23.0000 0 0 0 0.0000 -23.0000 A 0.7460 0.7460 0 0 0 -0.7460 -22.2508 L -0.7172 -15.5597 A 1.7460 1.7460 0 0 1 -4.1261 -15.0198 L -6.1664 -21.3923 A 0.7460 0.7460 0 0 0 -7.1074 -21.8743 A 23.0000 23.0000 0 0 0 -13.5191 -18.6074 A 0.7460 0.7460 0 0 0 -13.6822 -17.5627 L -9.7260 -12.1665 A 1.7460 1.7460 0 0 1 -12.1665 -9.7260 L -17.5627 -13.6822 A 0.7460 0.7460 0 0 0 -18.6074 -13.5191 A 23.0000 23.0000 0 0 0 -21.8743 -7.1074 A 0.7460 0.7460 0 0 0 -21.3923 -6.1664 L -15.0198 -4.1261 A 1.7460 1.7460 0 0 1 -15.5597 -0.7172 L -22.2508 -0.7460 A 0.7460 0.7460 0 0 0 -23.0000 -0.0000 A 23.0000 23.0000 0 0 0 -21.8743 7.1074 A 0.7460 0.7460 0 0 0 -20.9312 7.5854 L -14.5765 5.4903 A 1.7460 1.7460 0 0 1 -13.0096 8.5655 L -18.4397 12.4751 A 0.7460 0.7460 0 0 0 -18.6074 13.5191 A 23.0000 23.0000 0 0 0 -13.5191 18.6074 A 0.7460 0.7460 0 0 0 -12.4751 18.4397 L -8.5655 13.0096 A 1.7460 1.7460 0 0 1 -5.4903 14.5765 L -7.5854 20.9312 A 0.7460 0.7460 0 0 0 -7.1074 21.8743 A 23.0000 23.0000 0 0 0 -0.0000 23.0000 A 0.7460 0.7460 0 0 0 0.7460 22.2508 L 0.7172 15.5597 A 1.7460 1.7460 0 0 1 4.1261 15.0198 L 6.1664 21.3923 A 0.7460 0.7460 0 0 0 7.1074 21.8743 A 23.0000 23.0000 0 0 0 13.5191 18.6074 A 0.7460 0.7460 0 0 0 13.6822 17.5627 L 9.7260 12.1665 A 1.7460 1.7460 0 0 1 12.1665 9.7260 L 17.5627 13.6822 A 0.7460 0.7460 0 0 0 18.6074 13.5191 A 23.0000 23.0000 0 0 0 21.8743 7.1074 A 0.7460 0.7460 0 0 0 21.3923 6.1664 L 15.0198 4.1261 A 1.7460 1.7460 0 0 1 15.5597 0.7172 L 22.2508 0.7460 A 0.7460 0.7460 0 0 0 23.0000 0.0000 Z" stroke="green" stroke-width="1" fill="none" /></svg>