<svg width="1770" height="2540" viewBox="-88 -127 1770 2540" xmlns="http://www.w3.org/2000/svg"><path d="M 0.0000 2300.0000 L 200.0000 2300.0000 L 200.0000 1817.2736 A 200.0000 200.0000 0 0 1 202.9866 1782.8394 A 12068.3796 12068.3796 0 0 1 369.7107 987.7484 A 3268.9352 3268.9352 0 0 1 500.0000 576.0059 A 1234.4870 1234.4870 0 0 1 684.8164 255.4528 A 147.3531 147.3531 0 0 1 800.0000 200.0000 A 147.3531 147.3531 0 0 1 915.1836 255.4528 A 1234.4870 1234.4870 0 0 1 1100.0000 576.0059 A 3268.9352 3268.9352 0 0 1 1230.2893 987.7484 A 12068.3796 12068.3796 0 0 1 1397.0134 1782.8394 A 200.0000 200.0000 0 0 1 1400.0000 1817.2736 L 1400.0000 2300.0000 L 1600.0000 2300.0000 L 1600.0000 1903.9244 A 1000.0000 1000.0000 0 0 0 1577.6438 1693.6562 A 11708.9812 11708.9812 0 0 0 1374.6093 889.3835 A 3299.6597 3299.6597 0 0 0 1200.0000 423.0067 A 1327.2798 1327.2798 0 0 0 960.0323 68.9229 A 220.2512 220.2512 0 0 0 800.0000 0.0000 A 220.2512 220.2512 0 0 0 639.9677 68.9229 A 1327.2798 1327.2798 0 0 0 400.0000 423.0067 A 3299.6597 3299.6597 0 0 0 225.3907 889.3835 A 11708.9812 11708.9812 0 0 0 22.3562 1693.6562 A 1000.0000 1000.0000 0 0 0 0.0000 1903.9244 L 0.0000 2300.0000 Z" stroke="green" stroke-width="1" fill="none" /></svg>