0
SECTION
2
ENTITIES
0
ARC
8
PARAMETRIX
10
-0.0000
20
-0.0000
40
24.0000
50
0.0000
51
2.4913
0
ARC
8
PARAMETRIX
10
22.4787
20
0.9780
40
1.5000
50
2.4913
51
50.4903
0
LINE
8
PARAMETRIX
10
23.4330
20
2.1353
11
21.9970
21
3.3195
0
ARC
8
PARAMETRIX
10
22.6332
20
4.0910
40
1.0000
50
150.0011
51
230.4903
0
LINE
8
PARAMETRIX
10
21.7672
20
4.5910
11
22.6978
21
6.2029
0
ARC
8
PARAMETRIX
10
21.3988
20
6.9529
40
1.5000
50
330.0011
51
18.0000
0
ARC
8
PARAMETRIX
10
-0.0000
20
-0.0000
40
24.0000
50
18.0000
51
20.4913
0
ARC
8
PARAMETRIX
10
21.0763
20
7.8765
40
1.5000
50
20.4913
51
68.4903
0
LINE
8
PARAMETRIX
10
21.6263
20
9.2720
11
19.8947
21
9.9545
0
ARC
8
PARAMETRIX
10
20.2613
20
10.8848
40
1.0000
50
168.0011
51
248.4903
0
LINE
8
PARAMETRIX
10
19.2832
20
11.0927
11
19.6701
21
12.9133
0
ARC
8
PARAMETRIX
10
18.2029
20
13.2252
40
1.5000
50
348.0011
51
36.0000
0
ARC
8
PARAMETRIX
10
0.0000
20
0.0000
40
24.0000
50
36.0000
51
38.4913
0
ARC
8
PARAMETRIX
10
17.6108
20
14.0039
40
1.5000
50
38.4913
51
86.4903
0
LINE
8
PARAMETRIX
10
17.7026
20
15.5011
11
15.8448
21
15.6150
0
ARC
8
PARAMETRIX
10
15.9061
20
16.6132
40
1.0000
50
186.0011
51
266.4903
0
LINE
8
PARAMETRIX
10
14.9115
20
16.5086
11
14.7169
21
18.3597
0
ARC
8
PARAMETRIX
10
13.2252
20
18.2029
40
1.5000
50
6.0011
51
54.0000
0
ARC
8
PARAMETRIX
10
0.0000
20
0.0000
40
24.0000
50
54.0000
51
56.4913
0
ARC
8
PARAMETRIX
10
12.4214
20
18.7605
40
1.5000
50
56.4913
51
104.4903
0
LINE
8
PARAMETRIX
10
12.0461
20
20.2128
11
10.2440
21
19.7471
0
ARC
8
PARAMETRIX
10
9.9938
20
20.7153
40
1.0000
50
204.0011
51
284.4903
0
LINE
8
PARAMETRIX
10
9.0803
20
20.3085
11
8.3232
21
22.0089
0
ARC
8
PARAMETRIX
10
6.9529
20
21.3988
40
1.5000
50
24.0011
51
72.0000
0
ARC
8
PARAMETRIX
10
-0.0000
20
-0.0000
40
24.0000
50
72.0000
51
74.4913
0
ARC
8
PARAMETRIX
10
6.0161
20
21.6808
40
1.5000
50
74.4913
51
122.4903
0
LINE
8
PARAMETRIX
10
5.2104
20
22.9460
11
3.6405
21
21.9462
0
ARC
8
PARAMETRIX
10
3.1033
20
22.7897
40
1.0000
50
222.0011
51
302.4903
0
LINE
8
PARAMETRIX
10
2.3602
20
22.1205
11
1.1147
21
23.5037
0
ARC
8
PARAMETRIX
10
0.0000
20
22.5000
40
1.5000
50
42.0011
51
90.0000
0
ARC
8
PARAMETRIX
10
0.0000
20
-0.0000
40
24.0000
50
90.0000
51
92.4913
0
ARC
8
PARAMETRIX
10
-0.9780
20
22.4787
40
1.5000
50
92.4913
51
140.4903
0
LINE
8
PARAMETRIX
10
-2.1353
20
23.4330
11
-3.3195
21
21.9970
0
ARC
8
PARAMETRIX
10
-4.0910
20
22.6332
40
1.0000
50
240.0011
51
320.4903
0
LINE
8
PARAMETRIX
10
-4.5910
20
21.7672
11
-6.2029
21
22.6978
0
ARC
8
PARAMETRIX
10
-6.9529
20
21.3988
40
1.5000
50
60.0011
51
108.0000
0
ARC
8
PARAMETRIX
10
0.0000
20
-0.0000
40
24.0000
50
108.0000
51
110.4913
0
ARC
8
PARAMETRIX
10
-7.8765
20
21.0763
40
1.5000
50
110.4913
51
158.4903
0
LINE
8
PARAMETRIX
10
-9.2720
20
21.6263
11
-9.9545
21
19.8947
0
ARC
8
PARAMETRIX
10
-10.8848
20
20.2613
40
1.0000
50
258.0011
51
338.4903
0
LINE
8
PARAMETRIX
10
-11.0927
20
19.2832
11
-12.9133
21
19.6701
0
ARC
8
PARAMETRIX
10
-13.2252
20
18.2029
40
1.5000
50
78.0011
51
126.0000
0
ARC
8
PARAMETRIX
10
-0.0000
20
0.0000
40
24.0000
50
126.0000
51
128.4913
0
ARC
8
PARAMETRIX
10
-14.0039
20
17.6108
40
1.5000
50
128.4913
51
176.4903
0
LINE
8
PARAMETRIX
10
-15.5011
20
17.7026
11
-15.6150
21
15.8448
0
ARC
8
PARAMETRIX
10
-16.6132
20
15.9061
40
1.0000
50
276.0011
51
356.4903
0
LINE
8
PARAMETRIX
10
-16.5086
20
14.9115
11
-18.3597
21
14.7169
0
ARC
8
PARAMETRIX
10
-18.2029
20
13.2252
40
1.5000
50
96.0011
51
144.0000
0
ARC
8
PARAMETRIX
10
0.0000
20
-0.0000
40
24.0000
50
144.0000
51
146.4913
0
ARC
8
PARAMETRIX
10
-18.7605
20
12.4214
40
1.5000
50
146.4913
51
194.4903
0
LINE
8
PARAMETRIX
10
-20.2128
20
12.0461
11
-19.7471
21
10.2440
0
ARC
8
PARAMETRIX
10
-20.7153
20
9.9938
40
1.0000
50
294.0011
51
14.4903
0
LINE
8
PARAMETRIX
10
-20.3085
20
9.0803
11
-22.0089
21
8.3232
0
ARC
8
PARAMETRIX
10
-21.3988
20
6.9529
40
1.5000
50
114.0011
51
162.0000
0
ARC
8
PARAMETRIX
10
-0.0000
20
0.0000
40
24.0000
50
162.0000
51
164.4913
0
ARC
8
PARAMETRIX
10
-21.6808
20
6.0161
40
1.5000
50
164.4913
51
212.4903
0
LINE
8
PARAMETRIX
10
-22.9460
20
5.2104
11
-21.9462
21
3.6405
0
ARC
8
PARAMETRIX
10
-22.7897
20
3.1033
40
1.0000
50
312.0011
51
32.4903
0
LINE
8
PARAMETRIX
10
-22.1205
20
2.3602
11
-23.5037
21
1.1147
0
ARC
8
PARAMETRIX
10
-22.5000
20
0.0000
40
1.5000
50
132.0011
51
180.0000
0
ARC
8
PARAMETRIX
10
0.0000
20
0.0000
40
24.0000
50
180.0000
51
182.4913
0
ARC
8
PARAMETRIX
10
-22.4787
20
-0.9780
40
1.5000
50
182.4913
51
230.4903
0
LINE
8
PARAMETRIX
10
-23.4330
20
-2.1353
11
-21.9970
21
-3.3195
0
ARC
8
PARAMETRIX
10
-22.6332
20
-4.0910
40
1.0000
50
330.0011
51
50.4903
0
LINE
8
PARAMETRIX
10
-21.7672
20
-4.5910
11
-22.6978
21
-6.2029
0
ARC
8
PARAMETRIX
10
-21.3988
20
-6.9529
40
1.5000
50
150.0011
51
198.0000
0
ARC
8
PARAMETRIX
10
0.0000
20
0.0000
40
24.0000
50
198.0000
51
200.4913
0
ARC
8
PARAMETRIX
10
-21.0763
20
-7.8765
40
1.5000
50
200.4913
51
248.4903
0
LINE
8
PARAMETRIX
10
-21.6263
20
-9.2720
11
-19.8947
21
-9.9545
0
ARC
8
PARAMETRIX
10
-20.2613
20
-10.8848
40
1.0000
50
348.0011
51
68.4903
0
LINE
8
PARAMETRIX
10
-19.2832
20
-11.0927
11
-19.6701
21
-12.9133
0
ARC
8
PARAMETRIX
10
-18.2029
20
-13.2252
40
1.5000
50
168.0011
51
216.0000
0
ARC
8
PARAMETRIX
10
-0.0000
20
-0.0000
40
24.0000
50
216.0000
51
218.4913
0
ARC
8
PARAMETRIX
10
-17.6108
20
-14.0039
40
1.5000
50
218.4913
51
266.4903
0
LINE
8
PARAMETRIX
10
-17.7026
20
-15.5011
11
-15.8448
21
-15.6150
0
ARC
8
PARAMETRIX
10
-15.9061
20
-16.6132
40
1.0000
50
6.0011
51
86.4903
0
LINE
8
PARAMETRIX
10
-14.9115
20
-16.5086
11
-14.7169
21
-18.3597
0
ARC
8
PARAMETRIX
10
-13.2252
20
-18.2029
40
1.5000
50
186.0011
51
234.0000
0
ARC
8
PARAMETRIX
10
-0.0000
20
-0.0000
40
24.0000
50
234.0000
51
236.4913
0
ARC
8
PARAMETRIX
10
-12.4214
20
-18.7605
40
1.5000
50
236.4913
51
284.4903
0
LINE
8
PARAMETRIX
10
-12.0461
20
-20.2128
11
-10.2440
21
-19.7471
0
ARC
8
PARAMETRIX
10
-9.9938
20
-20.7153
40
1.0000
50
24.0011
51
104.4903
0
LINE
8
PARAMETRIX
10
-9.0803
20
-20.3085
11
-8.3232
21
-22.0089
0
ARC
8
PARAMETRIX
10
-6.9529
20
-21.3988
40
1.5000
50
204.0011
51
252.0000
0
ARC
8
PARAMETRIX
10
-0.0000
20
-0.0000
40
24.0000
50
252.0000
51
254.4913
0
ARC
8
PARAMETRIX
10
-6.0161
20
-21.6808
40
1.5000
50
254.4913
51
302.4903
0
LINE
8
PARAMETRIX
10
-5.2104
20
-22.9460
11
-3.6405
21
-21.9462
0
ARC
8
PARAMETRIX
10
-3.1033
20
-22.7897
40
1.0000
50
42.0011
51
122.4903
0
LINE
8
PARAMETRIX
10
-2.3602
20
-22.1205
11
-1.1147
21
-23.5037
0
ARC
8
PARAMETRIX
10
-0.0000
20
-22.5000
40
1.5000
50
222.0011
51
270.0000
0
ARC
8
PARAMETRIX
10
-0.0000
20
0.0000
40
24.0000
50
270.0000
51
272.4913
0
ARC
8
PARAMETRIX
10
0.9780
20
-22.4787
40
1.5000
50
272.4913
51
320.4903
0
LINE
8
PARAMETRIX
10
2.1353
20
-23.4330
11
3.3195
21
-21.9970
0
ARC
8
PARAMETRIX
10
4.0910
20
-22.6332
40
1.0000
50
60.0011
51
140.4903
0
LINE
8
PARAMETRIX
10
4.5910
20
-21.7672
11
6.2029
21
-22.6978
0
ARC
8
PARAMETRIX
10
6.9529
20
-21.3988
40
1.5000
50
240.0011
51
288.0000
0
ARC
8
PARAMETRIX
10
-0.0000
20
0.0000
40
24.0000
50
288.0000
51
290.4913
0
ARC
8
PARAMETRIX
10
7.8765
20
-21.0763
40
1.5000
50
290.4913
51
338.4903
0
LINE
8
PARAMETRIX
10
9.2720
20
-21.6263
11
9.9545
21
-19.8947
0
ARC
8
PARAMETRIX
10
10.8848
20
-20.2613
40
1.0000
50
78.0011
51
158.4903
0
LINE
8
PARAMETRIX
10
11.0927
20
-19.2832
11
12.9133
21
-19.6701
0
ARC
8
PARAMETRIX
10
13.2252
20
-18.2029
40
1.5000
50
258.0011
51
306.0000
0
ARC
8
PARAMETRIX
10
-0.0000
20
0.0000
40
24.0000
50
306.0000
51
308.4913
0
ARC
8
PARAMETRIX
10
14.0039
20
-17.6108
40
1.5000
50
308.4913
51
356.4903
0
LINE
8
PARAMETRIX
10
15.5011
20
-17.7026
11
15.6150
21
-15.8448
0
ARC
8
PARAMETRIX
10
16.6132
20
-15.9061
40
1.0000
50
96.0011
51
176.4903
0
LINE
8
PARAMETRIX
10
16.5086
20
-14.9115
11
18.3597
21
-14.7169
0
ARC
8
PARAMETRIX
10
18.2029
20
-13.2252
40
1.5000
50
276.0011
51
324.0000
0
ARC
8
PARAMETRIX
10
0.0000
20
-0.0000
40
24.0000
50
324.0000
51
326.4913
0
ARC
8
PARAMETRIX
10
18.7605
20
-12.4214
40
1.5000
50
326.4913
51
14.4903
0
LINE
8
PARAMETRIX
10
20.2128
20
-12.0461
11
19.7471
21
-10.2440
0
ARC
8
PARAMETRIX
10
20.7153
20
-9.9938
40
1.0000
50
114.0011
51
194.4903
0
LINE
8
PARAMETRIX
10
20.3085
20
-9.0803
11
22.0089
21
-8.3232
0
ARC
8
PARAMETRIX
10
21.3988
20
-6.9529
40
1.5000
50
294.0011
51
342.0000
0
ARC
8
PARAMETRIX
10
-0.0000
20
0.0000
40
24.0000
50
342.0000
51
344.4913
0
ARC
8
PARAMETRIX
10
21.6808
20
-6.0161
40
1.5000
50
344.4913
51
32.4903
0
LINE
8
PARAMETRIX
10
22.9460
20
-5.2104
11
21.9462
21
-3.6405
0
ARC
8
PARAMETRIX
10
22.7897
20
-3.1033
40
1.0000
50
132.0011
51
212.4903
0
LINE
8
PARAMETRIX
10
22.1205
20
-2.3602
11
23.5037
21
-1.1147
0
ARC
8
PARAMETRIX
10
22.5000
20
-0.0000
40
1.5000
50
312.0011
51
0.0000
0
ARC
8
PARAMETRIX
10
-0.0000
20
-0.0000
40
23.0000
50
0.0000
51
2.4913
0
ARC
8
PARAMETRIX
10
22.4787
20
0.9780
40
0.5000
50
2.4913
51
50.4903
0
LINE
8
PARAMETRIX
10
22.7968
20
1.3638
11
21.3608
21
2.5480
0
ARC
8
PARAMETRIX
10
22.6332
20
4.0910
40
2.0000
50
150.0011
51
230.4903
0
LINE
8
PARAMETRIX
10
20.9012
20
5.0910
11
21.8318
21
6.7029
0
ARC
8
PARAMETRIX
10
21.3988
20
6.9529
40
0.5000
50
330.0011
51
18.0000
0
ARC
8
PARAMETRIX
10
0.0000
20
0.0000
40
23.0000
50
18.0000
51
20.4913
0
ARC
8
PARAMETRIX
10
21.0763
20
7.8765
40
0.5000
50
20.4913
51
68.4903
0
LINE
8
PARAMETRIX
10
21.2596
20
8.3416
11
19.5280
21
9.0241
0
ARC
8
PARAMETRIX
10
20.2613
20
10.8848
40
2.0000
50
168.0011
51
248.4903
0
LINE
8
PARAMETRIX
10
18.3050
20
11.3006
11
18.6920
21
13.1212
0
ARC
8
PARAMETRIX
10
18.2029
20
13.2252
40
0.5000
50
348.0011
51
36.0000
0
ARC
8
PARAMETRIX
10
0.0000
20
0.0000
40
23.0000
50
36.0000
51
38.4913
0
ARC
8
PARAMETRIX
10
17.6108
20
14.0039
40
0.5000
50
38.4913
51
86.4903
0
LINE
8
PARAMETRIX
10
17.6414
20
14.5030
11
15.7836
21
14.6169
0
ARC
8
PARAMETRIX
10
15.9061
20
16.6132
40
2.0000
50
186.0011
51
266.4903
0
LINE
8
PARAMETRIX
10
13.9170
20
16.4041
11
13.7224
21
18.2552
0
ARC
8
PARAMETRIX
10
13.2252
20
18.2029
40
0.5000
50
6.0011
51
54.0000
0
ARC
8
PARAMETRIX
10
-0.0000
20
-0.0000
40
23.0000
50
54.0000
51
56.4913
0
ARC
8
PARAMETRIX
10
12.4214
20
18.7605
40
0.5000
50
56.4913
51
104.4903
0
LINE
8
PARAMETRIX
10
12.2963
20
19.2446
11
10.4942
21
18.7789
0
ARC
8
PARAMETRIX
10
9.9938
20
20.7153
40
2.0000
50
204.0011
51
284.4903
0
LINE
8
PARAMETRIX
10
8.1667
20
19.9018
11
7.4097
21
21.6021
0
ARC
8
PARAMETRIX
10
6.9529
20
21.3988
40
0.5000
50
24.0011
51
72.0000
0
ARC
8
PARAMETRIX
10
-0.0000
20
-0.0000
40
23.0000
50
72.0000
51
74.4913
0
ARC
8
PARAMETRIX
10
6.0161
20
21.6808
40
0.5000
50
74.4913
51
122.4903
0
LINE
8
PARAMETRIX
10
5.7476
20
22.1025
11
4.1776
21
21.1027
0
ARC
8
PARAMETRIX
10
3.1033
20
22.7897
40
2.0000
50
222.0011
51
302.4903
0
LINE
8
PARAMETRIX
10
1.6170
20
21.4514
11
0.3716
21
22.8346
0
ARC
8
PARAMETRIX
10
0.0000
20
22.5000
40
0.5000
50
42.0011
51
90.0000
0
ARC
8
PARAMETRIX
10
0.0000
20
-0.0000
40
23.0000
50
90.0000
51
92.4913
0
ARC
8
PARAMETRIX
10
-0.9780
20
22.4787
40
0.5000
50
92.4913
51
140.4903
0
LINE
8
PARAMETRIX
10
-1.3638
20
22.7968
11
-2.5480
21
21.3608
0
ARC
8
PARAMETRIX
10
-4.0910
20
22.6332
40
2.0000
50
240.0011
51
320.4903
0
LINE
8
PARAMETRIX
10
-5.0910
20
20.9012
11
-6.7029
21
21.8318
0
ARC
8
PARAMETRIX
10
-6.9529
20
21.3988
40
0.5000
50
60.0011
51
108.0000
0
ARC
8
PARAMETRIX
10
0.0000
20
-0.0000
40
23.0000
50
108.0000
51
110.4913
0
ARC
8
PARAMETRIX
10
-7.8765
20
21.0763
40
0.5000
50
110.4913
51
158.4903
0
LINE
8
PARAMETRIX
10
-8.3416
20
21.2596
11
-9.0241
21
19.5280
0
ARC
8
PARAMETRIX
10
-10.8848
20
20.2613
40
2.0000
50
258.0011
51
338.4903
0
LINE
8
PARAMETRIX
10
-11.3006
20
18.3050
11
-13.1212
21
18.6920
0
ARC
8
PARAMETRIX
10
-13.2252
20
18.2029
40
0.5000
50
78.0011
51
126.0000
0
ARC
8
PARAMETRIX
10
-0.0000
20
0.0000
40
23.0000
50
126.0000
51
128.4913
0
ARC
8
PARAMETRIX
10
-14.0039
20
17.6108
40
0.5000
50
128.4913
51
176.4903
0
LINE
8
PARAMETRIX
10
-14.5030
20
17.6414
11
-14.6169
21
15.7836
0
ARC
8
PARAMETRIX
10
-16.6132
20
15.9061
40
2.0000
50
276.0011
51
356.4903
0
LINE
8
PARAMETRIX
10
-16.4041
20
13.9170
11
-18.2552
21
13.7224
0
ARC
8
PARAMETRIX
10
-18.2029
20
13.2252
40
0.5000
50
96.0011
51
144.0000
0
ARC
8
PARAMETRIX
10
0.0000
20
-0.0000
40
23.0000
50
144.0000
51
146.4913
0
ARC
8
PARAMETRIX
10
-18.7605
20
12.4214
40
0.5000
50
146.4913
51
194.4903
0
LINE
8
PARAMETRIX
10
-19.2446
20
12.2963
11
-18.7789
21
10.4942
0
ARC
8
PARAMETRIX
10
-20.7153
20
9.9938
40
2.0000
50
294.0011
51
14.4903
0
LINE
8
PARAMETRIX
10
-19.9018
20
8.1667
11
-21.6021
21
7.4097
0
ARC
8
PARAMETRIX
10
-21.3988
20
6.9529
40
0.5000
50
114.0011
51
162.0000
0
ARC
8
PARAMETRIX
10
-0.0000
20
0.0000
40
23.0000
50
162.0000
51
164.4913
0
ARC
8
PARAMETRIX
10
-21.6808
20
6.0161
40
0.5000
50
164.4913
51
212.4903
0
LINE
8
PARAMETRIX
10
-22.1025
20
5.7476
11
-21.1027
21
4.1776
0
ARC
8
PARAMETRIX
10
-22.7897
20
3.1033
40
2.0000
50
312.0011
51
32.4903
0
LINE
8
PARAMETRIX
10
-21.4514
20
1.6170
11
-22.8346
21
0.3716
0
ARC
8
PARAMETRIX
10
-22.5000
20
0.0000
40
0.5000
50
132.0011
51
180.0000
0
ARC
8
PARAMETRIX
10
0.0000
20
0.0000
40
23.0000
50
180.0000
51
182.4913
0
ARC
8
PARAMETRIX
10
-22.4787
20
-0.9780
40
0.5000
50
182.4913
51
230.4903
0
LINE
8
PARAMETRIX
10
-22.7968
20
-1.3638
11
-21.3608
21
-2.5480
0
ARC
8
PARAMETRIX
10
-22.6332
20
-4.0910
40
2.0000
50
330.0011
51
50.4903
0
LINE
8
PARAMETRIX
10
-20.9012
20
-5.0910
11
-21.8318
21
-6.7029
0
ARC
8
PARAMETRIX
10
-21.3988
20
-6.9529
40
0.5000
50
150.0011
51
198.0000
0
ARC
8
PARAMETRIX
10
-0.0000
20
-0.0000
40
23.0000
50
198.0000
51
200.4913
0
ARC
8
PARAMETRIX
10
-21.0763
20
-7.8765
40
0.5000
50
200.4913
51
248.4903
0
LINE
8
PARAMETRIX
10
-21.2596
20
-8.3416
11
-19.5280
21
-9.0241
0
ARC
8
PARAMETRIX
10
-20.2613
20
-10.8848
40
2.0000
50
348.0011
51
68.4903
0
LINE
8
PARAMETRIX
10
-18.3050
20
-11.3006
11
-18.6920
21
-13.1212
0
ARC
8
PARAMETRIX
10
-18.2029
20
-13.2252
40
0.5000
50
168.0011
51
216.0000
0
ARC
8
PARAMETRIX
10
-0.0000
20
-0.0000
40
23.0000
50
216.0000
51
218.4913
0
ARC
8
PARAMETRIX
10
-17.6108
20
-14.0039
40
0.5000
50
218.4913
51
266.4903
0
LINE
8
PARAMETRIX
10
-17.6414
20
-14.5030
11
-15.7836
21
-14.6169
0
ARC
8
PARAMETRIX
10
-15.9061
20
-16.6132
40
2.0000
50
6.0011
51
86.4903
0
LINE
8
PARAMETRIX
10
-13.9170
20
-16.4041
11
-13.7224
21
-18.2552
0
ARC
8
PARAMETRIX
10
-13.2252
20
-18.2029
40
0.5000
50
186.0011
51
234.0000
0
ARC
8
PARAMETRIX
10
0.0000
20
0.0000
40
23.0000
50
234.0000
51
236.4913
0
ARC
8
PARAMETRIX
10
-12.4214
20
-18.7605
40
0.5000
50
236.4913
51
284.4903
0
LINE
8
PARAMETRIX
10
-12.2963
20
-19.2446
11
-10.4942
21
-18.7789
0
ARC
8
PARAMETRIX
10
-9.9938
20
-20.7153
40
2.0000
50
24.0011
51
104.4903
0
LINE
8
PARAMETRIX
10
-8.1667
20
-19.9018
11
-7.4097
21
-21.6021
0
ARC
8
PARAMETRIX
10
-6.9529
20
-21.3988
40
0.5000
50
204.0011
51
252.0000
0
ARC
8
PARAMETRIX
10
-0.0000
20
-0.0000
40
23.0000
50
252.0000
51
254.4913
0
ARC
8
PARAMETRIX
10
-6.0161
20
-21.6808
40
0.5000
50
254.4913
51
302.4903
0
LINE
8
PARAMETRIX
10
-5.7476
20
-22.1025
11
-4.1776
21
-21.1027
0
ARC
8
PARAMETRIX
10
-3.1033
20
-22.7897
40
2.0000
50
42.0011
51
122.4903
0
LINE
8
PARAMETRIX
10
-1.6170
20
-21.4514
11
-0.3716
21
-22.8346
0
ARC
8
PARAMETRIX
10
-0.0000
20
-22.5000
40
0.5000
50
222.0011
51
270.0000
0
ARC
8
PARAMETRIX
10
-0.0000
20
0.0000
40
23.0000
50
270.0000
51
272.4913
0
ARC
8
PARAMETRIX
10
0.9780
20
-22.4787
40
0.5000
50
272.4913
51
320.4903
0
LINE
8
PARAMETRIX
10
1.3638
20
-22.7968
11
2.5480
21
-21.3608
0
ARC
8
PARAMETRIX
10
4.0910
20
-22.6332
40
2.0000
50
60.0011
51
140.4903
0
LINE
8
PARAMETRIX
10
5.0910
20
-20.9012
11
6.7029
21
-21.8318
0
ARC
8
PARAMETRIX
10
6.9529
20
-21.3988
40
0.5000
50
240.0011
51
288.0000
0
ARC
8
PARAMETRIX
10
0.0000
20
-0.0000
40
23.0000
50
288.0000
51
290.4913
0
ARC
8
PARAMETRIX
10
7.8765
20
-21.0763
40
0.5000
50
290.4913
51
338.4903
0
LINE
8
PARAMETRIX
10
8.3416
20
-21.2596
11
9.0241
21
-19.5280
0
ARC
8
PARAMETRIX
10
10.8848
20
-20.2613
40
2.0000
50
78.0011
51
158.4903
0
LINE
8
PARAMETRIX
10
11.3006
20
-18.3050
11
13.1212
21
-18.6920
0
ARC
8
PARAMETRIX
10
13.2252
20
-18.2029
40
0.5000
50
258.0011
51
306.0000
0
ARC
8
PARAMETRIX
10
0.0000
20
-0.0000
40
23.0000
50
306.0000
51
308.4913
0
ARC
8
PARAMETRIX
10
14.0039
20
-17.6108
40
0.5000
50
308.4913
51
356.4903
0
LINE
8
PARAMETRIX
10
14.5030
20
-17.6414
11
14.6169
21
-15.7836
0
ARC
8
PARAMETRIX
10
16.6132
20
-15.9061
40
2.0000
50
96.0011
51
176.4903
0
LINE
8
PARAMETRIX
10
16.4041
20
-13.9170
11
18.2552
21
-13.7224
0
ARC
8
PARAMETRIX
10
18.2029
20
-13.2252
40
0.5000
50
276.0011
51
324.0000
0
ARC
8
PARAMETRIX
10
-0.0000
20
0.0000
40
23.0000
50
324.0000
51
326.4913
0
ARC
8
PARAMETRIX
10
18.7605
20
-12.4214
40
0.5000
50
326.4913
51
14.4903
0
LINE
8
PARAMETRIX
10
19.2446
20
-12.2963
11
18.7789
21
-10.4942
0
ARC
8
PARAMETRIX
10
20.7153
20
-9.9938
40
2.0000
50
114.0011
51
194.4903
0
LINE
8
PARAMETRIX
10
19.9018
20
-8.1667
11
21.6021
21
-7.4097
0
ARC
8
PARAMETRIX
10
21.3988
20
-6.9529
40
0.5000
50
294.0011
51
342.0000
0
ARC
8
PARAMETRIX
10
-0.0000
20
0.0000
40
23.0000
50
342.0000
51
344.4913
0
ARC
8
PARAMETRIX
10
21.6808
20
-6.0161
40
0.5000
50
344.4913
51
32.4903
0
LINE
8
PARAMETRIX
10
22.1025
20
-5.7476
11
21.1027
21
-4.1776
0
ARC
8
PARAMETRIX
10
22.7897
20
-3.1033
40
2.0000
50
132.0011
51
212.4903
0
LINE
8
PARAMETRIX
10
21.4514
20
-1.6170
11
22.8346
21
-0.3716
0
ARC
8
PARAMETRIX
10
22.5000
20
-0.0000
40
0.5000
50
312.0011
51
360.0000
0
ENDSEC
0
EOF
