<svg width="63" height="63" viewBox="-27 -27 63 63" xmlns="http://www.w3.org/2000/svg"><path d="M 24.0000 0.0000 A 24.0000 24.0000 0 0 0 23.9773 -1.0432 A 1.5000 1.5000 0 0 0 23.4330 -2.1353 L 21.9970 -3.3195 A 1.0000 1.0000 0 0 1 21.7672 -4.5910 L 22.6978 -6.2029 A 1.5000 1.5000 0 0 0 22.8254 -7.4164 A 24.0000 24.0000 0 0 0 22.4814 -8.4016 A 1.5000 1.5000 0 0 0 21.6263 -9.2720 L 19.8947 -9.9545 A 1.0000 1.0000 0 0 1 19.2832 -11.0927 L 19.6701 -12.9133 A 1.5000 1.5000 0 0 0 19.4164 -14.1068 A 24.0000 24.0000 0 0 0 18.7849 -14.9375 A 1.5000 1.5000 0 0 0 17.7026 -15.5011 L 15.8448 -15.6150 A 1.0000 1.0000 0 0 1 14.9115 -16.5086 L 14.7169 -18.3597 A 1.5000 1.5000 0 0 0 14.1068 -19.4164 A 24.0000 24.0000 0 0 0 13.2495 -20.0113 A 1.5000 1.5000 0 0 0 12.0461 -20.2128 L 10.2440 -19.7471 A 1.0000 1.0000 0 0 1 9.0803 -20.3085 L 8.3232 -22.0089 A 1.5000 1.5000 0 0 0 7.4164 -22.8254 A 24.0000 24.0000 0 0 0 6.4172 -23.1262 A 1.5000 1.5000 0 0 0 5.2104 -22.9460 L 3.6405 -21.9462 A 1.0000 1.0000 0 0 1 2.3602 -22.1205 L 1.1147 -23.5037 A 1.5000 1.5000 0 0 0 0.0000 -24.0000 A 24.0000 24.0000 0 0 0 -1.0432 -23.9773 A 1.5000 1.5000 0 0 0 -2.1353 -23.4330 L -3.3195 -21.9970 A 1.0000 1.0000 0 0 1 -4.5910 -21.7672 L -6.2029 -22.6978 A 1.5000 1.5000 0 0 0 -7.4164 -22.8254 A 24.0000 24.0000 0 0 0 -8.4016 -22.4814 A 1.5000 1.5000 0 0 0 -9.2720 -21.6263 L -9.9545 -19.8947 A 1.0000 1.0000 0 0 1 -11.0927 -19.2832 L -12.9133 -19.6701 A 1.5000 1.5000 0 0 0 -14.1068 -19.4164 A 24.0000 24.0000 0 0 0 -14.9375 -18.7849 A 1.5000 1.5000 0 0 0 -15.5011 -17.7026 L -15.6150 -15.8448 A 1.0000 1.0000 0 0 1 -16.5086 -14.9115 L -18.3597 -14.7169 A 1.5000 1.5000 0 0 0 -19.4164 -14.1068 A 24.0000 24.0000 0 0 0 -20.0113 -13.2495 A 1.5000 1.5000 0 0 0 -20.2128 -12.0461 L -19.7471 -10.2440 A 1.0000 1.0000 0 0 1 -20.3085 -9.0803 L -22.0089 -8.3232 A 1.5000 1.5000 0 0 0 -22.8254 -7.4164 A 24.0000 24.0000 0 0 0 -23.1262 -6.4172 A 1.5000 1.5000 0 0 0 -22.9460 -5.2104 L -21.9462 -3.6405 A 1.0000 1.0000 0 0 1 -22.1205 -2.3602 L -23.5037 -1.1147 A 1.5000 1.5000 0 0 0 -24.0000 -0.0000 A 24.0000 24.0000 0 0 0 -23.9773 1.0432 A 1.5000 1.5000 0 0 0 -23.4330 2.1353 L -21.9970 3.3195 A 1.0000 1.0000 0 0 1 -21.7672 4.5910 L -22.6978 6.2029 A 1.5000 1.5000 0 0 0 -22.8254 7.4164 A 24.0000 24.0000 0 0 0 -22.4814 8.4016 A 1.5000 1.5000 0 0 0 -21.6263 9.2720 L -19.8947 9.9545 A 1.0000 1.0000 0 0 1 -19.2832 11.0927 L -19.6701 12.9133 A 1.5000 1.5000 0 0 0 -19.4164 14.1068 A 24.0000 24.0000 0 0 0 -18.7849 14.9375 A 1.5000 1.5000 0 0 0 -17.7026 15.5011 L -15.8448 15.6150 A 1.0000 1.0000 0 0 1 -14.9115 16.5086 L -14.7169 18.3597 A 1.5000 1.5000 0 0 0 -14.1068 19.4164 A 24.0000 24.0000 0 0 0 -13.2495 20.0113 A 1.5000 1.5000 0 0 0 -12.0461 20.2128 L -10.2440 19.7471 A 1.0000 1.0000 0 0 1 -9.0803 20.3085 L -8.3232 22.0089 A 1.5000 1.5000 0 0 0 -7.4164 22.8254 A 24.0000 24.0000 0 0 0 -6.4172 23.1262 A 1.5000 1.5000 0 0 0 -5.2104 22.9460 L -3.6405 21.9462 A 1.0000 1.0000 0 0 1 -2.3602 22.1205 L -1.1147 23.5037 A 1.5000 1.5000 0 0 0 -0.0000 24.0000 A 24.0000 24.0000 0 0 0 1.0432 23.9773 A 1.5000 1.5000 0 0 0 2.1353 23.4330 L 3.3195 21.9970 A 1.0000 1.0000 0 0 1 4.5910 21.7672 L 6.2029 22.6978 A 1.5000 1.5000 0 0 0 7.4164 22.8254 A 24.0000 24.0000 0 0 0 8.4016 22.4814 A 1.5000 1.5000 0 0 0 9.2720 21.6263 L 9.9545 19.8947 A 1.0000 1.0000 0 0 1 11.0927 19.2832 L 12.9133 19.6701 A 1.5000 1.5000 0 0 0 14.1068 19.4164 A 24.0000 24.0000 0 0 0 14.9375 18.7849 A 1.5000 1.5000 0 0 0 15.5011 17.7026 L 15.6150 15.8448 A 1.0000 1.0000 0 0 1 16.5086 14.9115 L 18.3597 14.7169 A 1.5000 1.5000 0 0 0 19.4164 14.1068 A 24.0000 24.0000 0 0 0 20.0113 13.2495 A 1.5000 1.5000 0 0 0 20.2128 12.0461 L 19.7471 10.2440 A 1.0000 1.0000 0 0 1 20.3085 9.0803 L 22.0089 8.3232 A 1.5000 1.5000 0 0 0 22.8254 7.4164 A 24.0000 24.0000 0 0 0 23.1262 6.4172 A 1.5000 1.5000 0 0 0 22.9460 5.2104 L 21.9462 3.6405 A 1.0000 1.0000 0 0 1 22.1205 2.3602 L 23.5037 1.1147 A 1.5000 1.5000 0 0 0 24.0000 0.0000 Z" stroke="green" stroke-width="1" fill="none" /><path d="M 23.0000 0.0000 A 23.0000 23.0000 0 0 0 22.9783 -0.9998 A 0.5000 0.5000 0 0 0 22.7968 -1.3638 L 21.3608 -2.5480 A 2.0000 2.0000 0 0 1 20.9012 -5.0910 L 21.8318 -6.7029 A 0.5000 0.5000 0 0 0 21.8743 -7.1074 A 23.0000 23.0000 0 0 0 21.5447 -8.0515 A 0.5000 0.5000 0 0 0 21.2596 -8.3416 L 19.5280 -9.0241 A 2.0000 2.0000 0 0 1 18.3050 -11.3006 L 18.6920 -13.1212 A 0.5000 0.5000 0 0 0 18.6074 -13.5191 A 23.0000 23.0000 0 0 0 18.0022 -14.3151 A 0.5000 0.5000 0 0 0 17.6414 -14.5030 L 15.7836 -14.6169 A 2.0000 2.0000 0 0 1 13.9170 -16.4041 L 13.7224 -18.2552 A 0.5000 0.5000 0 0 0 13.5191 -18.6074 A 23.0000 23.0000 0 0 0 12.6975 -19.1774 A 0.5000 0.5000 0 0 0 12.2963 -19.2446 L 10.4942 -18.7789 A 2.0000 2.0000 0 0 1 8.1667 -19.9018 L 7.4097 -21.6021 A 0.5000 0.5000 0 0 0 7.1074 -21.8743 A 23.0000 23.0000 0 0 0 6.1498 -22.1626 A 0.5000 0.5000 0 0 0 5.7476 -22.1025 L 4.1776 -21.1027 A 2.0000 2.0000 0 0 1 1.6170 -21.4514 L 0.3716 -22.8346 A 0.5000 0.5000 0 0 0 0.0000 -23.0000 A 23.0000 23.0000 0 0 0 -0.9998 -22.9783 A 0.5000 0.5000 0 0 0 -1.3638 -22.7968 L -2.5480 -21.3608 A 2.0000 2.0000 0 0 1 -5.0910 -20.9012 L -6.7029 -21.8318 A 0.5000 0.5000 0 0 0 -7.1074 -21.8743 A 23.0000 23.0000 0 0 0 -8.0515 -21.5447 A 0.5000 0.5000 0 0 0 -8.3416 -21.2596 L -9.0241 -19.5280 A 2.0000 2.0000 0 0 1 -11.3006 -18.3050 L -13.1212 -18.6920 A 0.5000 0.5000 0 0 0 -13.5191 -18.6074 A 23.0000 23.0000 0 0 0 -14.3151 -18.0022 A 0.5000 0.5000 0 0 0 -14.5030 -17.6414 L -14.6169 -15.7836 A 2.0000 2.0000 0 0 1 -16.4041 -13.9170 L -18.2552 -13.7224 A 0.5000 0.5000 0 0 0 -18.6074 -13.5191 A 23.0000 23.0000 0 0 0 -19.1774 -12.6975 A 0.5000 0.5000 0 0 0 -19.2446 -12.2963 L -18.7789 -10.4942 A 2.0000 2.0000 0 0 1 -19.9018 -8.1667 L -21.6021 -7.4097 A 0.5000 0.5000 0 0 0 -21.8743 -7.1074 A 23.0000 23.0000 0 0 0 -22.1626 -6.1498 A 0.5000 0.5000 0 0 0 -22.1025 -5.7476 L -21.1027 -4.1776 A 2.0000 2.0000 0 0 1 -21.4514 -1.6170 L -22.8346 -0.3716 A 0.5000 0.5000 0 0 0 -23.0000 -0.0000 A 23.0000 23.0000 0 0 0 -22.9783 0.9998 A 0.5000 0.5000 0 0 0 -22.7968 1.3638 L -21.3608 2.5480 A 2.0000 2.0000 0 0 1 -20.9012 5.0910 L -21.8318 6.7029 A 0.5000 0.5000 0 0 0 -21.8743 7.1074 A 23.0000 23.0000 0 0 0 -21.5447 8.0515 A 0.5000 0.5000 0 0 0 -21.2596 8.3416 L -19.5280 9.0241 A 2.0000 2.0000 0 0 1 -18.3050 11.3006 L -18.6920 13.1212 A 0.5000 0.5000 0 0 0 -18.6074 13.5191 A 23.0000 23.0000 0 0 0 -18.0022 14.3151 A 0.5000 0.5000 0 0 0 -17.6414 14.5030 L -15.7836 14.6169 A 2.0000 2.0000 0 0 1 -13.9170 16.4041 L -13.7224 18.2552 A 0.5000 0.5000 0 0 0 -13.5191 18.6074 A 23.0000 23.0000 0 0 0 -12.6975 19.1774 A 0.5000 0.5000 0 0 0 -12.2963 19.2446 L -10.4942 18.7789 A 2.0000 2.0000 0 0 1 -8.1667 19.9018 L -7.4097 21.6021 A 0.5000 0.5000 0 0 0 -7.1074 21.8743 A 23.0000 23.0000 0 0 0 -6.1498 22.1626 A 0.5000 0.5000 0 0 0 -5.7476 22.1025 L -4.1776 21.1027 A 2.0000 2.0000 0 0 1 -1.6170 21.4514 L -0.3716 22.8346 A 0.5000 0.5000 0 0 0 -0.0000 23.0000 A 23.0000 23.0000 0 0 0 0.9998 22.9783 A 0.5000 0.5000 0 0 0 1.3638 22.7968 L 2.5480 21.3608 A 2.0000 2.0000 0 0 1 5.0910 20.9012 L 6.7029 21.8318 A 0.5000 0.5000 0 0 0 7.1074 21.8743 A 23.0000 23.0000 0 0 0 8.0515 21.5447 A 0.5000 0.5000 0 0 0 8.3416 21.2596 L 9.0241 19.5280 A 2.0000 2.0000 0 0 1 11.3006 18.3050 L 13.1212 18.6920 A 0.5000 0.5000 0 0 0 13.5191 18.6074 A 23.0000 23.0000 0 0 0 14.3151 18.0022 A 0.5000 0.5000 0 0 0 14.5030 17.6414 L 14.6169 15.7836 A 2.0000 2.0000 0 0 1 16.4041 13.9170 L 18.2552 13.7224 A 0.5000 0.5000 0 0 0 18.6074 13.5191 A 23.0000 23.0000 0 0 0 19.1774 12.6975 A 0.5000 0.5000 0 0 0 19.2446 12.2963 L 18.7789 10.4942 A 2.0000 2.0000 0 0 1 19.9018 8.1667 L 21.6021 7.4097 A 0.5000 0.5000 0 0 0 21.8743 7.1074 A 23.0000 23.0000 0 0 0 22.1626 6.1498 A 0.5000 0.5000 0 0 0 22.1025 5.7476 L 21.1027 4.1776 A 2.0000 2.0000 0 0 1 21.4514 1.6170 L 22.8346 0.3716 A 0.5000 0.5000 0 0 0 23.0000 0.0000 Z" stroke="green" stroke-width="1" fill="none" /></svg>