<svg width="2873" height="1772" viewBox="-144 -89 2873 1772" xmlns="http://www.w3.org/2000/svg"><path d="M 0.0000 1601.4000 L 2602.4000 1601.4000 L 2602.4000 1401.4000 L 0.0000 1401.4000 L 0.0000 1601.4000 Z" stroke="green" stroke-width="1" fill="none" /><path d="M 0.0000 1401.2000 L 2602.4000 1401.2000 L 2602.4000 1201.2000 L 0.0000 1201.2000 L 0.0000 1401.2000 Z" stroke="green" stroke-width="1" fill="none" /><path d="M 0.0000 1201.0000 L 2602.4000 1201.0000 L 2602.4000 1001.0000 L 0.0000 1001.0000 L 0.0000 1201.0000 Z" stroke="green" stroke-width="1" fill="none" /><path d="M 0.0000 1000.8000 L 2602.4000 1000.8000 L 2602.4000 800.8000 L 0.0000 800.8000 L 0.0000 1000.8000 Z" stroke="green" stroke-width="1" fill="none" /><path d="M 0.0000 800.6000 L 2602.4000 800.6000 L 2602.4000 600.6000 L 0.0000 600.6000 L 0.0000 800.6000 Z" stroke="green" stroke-width="1" fill="none" /><path d="M 0.0000 600.4000 L 2602.4000 600.4000 L 2602.4000 400.4000 L 0.0000 400.4000 L 0.0000 600.4000 Z" stroke="green" stroke-width="1" fill="none" /><path d="M 0.0000 400.2000 L 2602.4000 400.2000 L 2602.4000 200.2000 L 0.0000 200.2000 L 0.0000 400.2000 Z" stroke="green" stroke-width="1" fill="none" /><path d="M 0.0000 200.0000 L 2602.4000 200.0000 L 2602.4000 0.0000 L 0.0000 0.0000 L 0.0000 200.0000 Z" stroke="green" stroke-width="1" fill="none" /></svg>