<svg width="2873" height="1772" viewBox="-144 -89 2873 1772" xmlns="http://www.w3.org/2000/svg"><path d="M 0.0000 1601.4000 L 200.0000 1601.4000 L 200.0000 0.0000 L 0.0000 0.0000 L 0.0000 1601.4000 Z" stroke="green" stroke-width="1" fill="none" /><path d="M 200.2000 1601.4000 L 400.2000 1601.4000 L 400.2000 0.0000 L 200.2000 0.0000 L 200.2000 1601.4000 Z" stroke="green" stroke-width="1" fill="none" /><path d="M 400.4000 1601.4000 L 600.4000 1601.4000 L 600.4000 0.0000 L 400.4000 0.0000 L 400.4000 1601.4000 Z" stroke="green" stroke-width="1" fill="none" /><path d="M 600.6000 1601.4000 L 800.6000 1601.4000 L 800.6000 0.0000 L 600.6000 0.0000 L 600.6000 1601.4000 Z" stroke="green" stroke-width="1" fill="none" /><path d="M 800.8000 1601.4000 L 1000.8000 1601.4000 L 1000.8000 0.0000 L 800.8000 0.0000 L 800.8000 1601.4000 Z" stroke="green" stroke-width="1" fill="none" /><path d="M 1001.0000 1601.4000 L 1201.0000 1601.4000 L 1201.0000 0.0000 L 1001.0000 0.0000 L 1001.0000 1601.4000 Z" stroke="green" stroke-width="1" fill="none" /><path d="M 1201.2000 1601.4000 L 1401.2000 1601.4000 L 1401.2000 0.0000 L 1201.2000 0.0000 L 1201.2000 1601.4000 Z" stroke="green" stroke-width="1" fill="none" /><path d="M 1401.4000 1601.4000 L 1601.4000 1601.4000 L 1601.4000 0.0000 L 1401.4000 0.0000 L 1401.4000 1601.4000 Z" stroke="green" stroke-width="1" fill="none" /><path d="M 1601.6000 1601.4000 L 1801.6000 1601.4000 L 1801.6000 0.0000 L 1601.6000 0.0000 L 1601.6000 1601.4000 Z" stroke="green" stroke-width="1" fill="none" /><path d="M 1801.8000 1601.4000 L 2001.8000 1601.4000 L 2001.8000 0.0000 L 1801.8000 0.0000 L 1801.8000 1601.4000 Z" stroke="green" stroke-width="1" fill="none" /><path d="M 2002.0000 1601.4000 L 2202.0000 1601.4000 L 2202.0000 0.0000 L 2002.0000 0.0000 L 2002.0000 1601.4000 Z" stroke="green" stroke-width="1" fill="none" /><path d="M 2202.2000 1601.4000 L 2402.2000 1601.4000 L 2402.2000 0.0000 L 2202.2000 0.0000 L 2202.2000 1601.4000 Z" stroke="green" stroke-width="1" fill="none" /><path d="M 2402.4000 1601.4000 L 2602.4000 1601.4000 L 2602.4000 0.0000 L 2402.4000 0.0000 L 2402.4000 1601.4000 Z" stroke="green" stroke-width="1" fill="none" /></svg>