0
SECTION
2
ENTITIES
0
LINE
8
PARAMETRIX
10
0.0000
20
0.0000
11
200.0000
21
0.0000
0
LINE
8
PARAMETRIX
10
200.0000
20
0.0000
11
200.0000
21
1601.4000
0
LINE
8
PARAMETRIX
10
200.0000
20
1601.4000
11
0.0000
21
1601.4000
0
LINE
8
PARAMETRIX
10
0.0000
20
1601.4000
11
0.0000
21
0.0000
0
LINE
8
PARAMETRIX
10
200.2000
20
0.0000
11
400.2000
21
0.0000
0
LINE
8
PARAMETRIX
10
400.2000
20
0.0000
11
400.2000
21
1601.4000
0
LINE
8
PARAMETRIX
10
400.2000
20
1601.4000
11
200.2000
21
1601.4000
0
LINE
8
PARAMETRIX
10
200.2000
20
1601.4000
11
200.2000
21
0.0000
0
LINE
8
PARAMETRIX
10
400.4000
20
0.0000
11
600.4000
21
0.0000
0
LINE
8
PARAMETRIX
10
600.4000
20
0.0000
11
600.4000
21
1601.4000
0
LINE
8
PARAMETRIX
10
600.4000
20
1601.4000
11
400.4000
21
1601.4000
0
LINE
8
PARAMETRIX
10
400.4000
20
1601.4000
11
400.4000
21
0.0000
0
LINE
8
PARAMETRIX
10
600.6000
20
0.0000
11
800.6000
21
0.0000
0
LINE
8
PARAMETRIX
10
800.6000
20
0.0000
11
800.6000
21
1601.4000
0
LINE
8
PARAMETRIX
10
800.6000
20
1601.4000
11
600.6000
21
1601.4000
0
LINE
8
PARAMETRIX
10
600.6000
20
1601.4000
11
600.6000
21
0.0000
0
LINE
8
PARAMETRIX
10
800.8000
20
0.0000
11
1000.8000
21
0.0000
0
LINE
8
PARAMETRIX
10
1000.8000
20
0.0000
11
1000.8000
21
1601.4000
0
LINE
8
PARAMETRIX
10
1000.8000
20
1601.4000
11
800.8000
21
1601.4000
0
LINE
8
PARAMETRIX
10
800.8000
20
1601.4000
11
800.8000
21
0.0000
0
LINE
8
PARAMETRIX
10
1001.0000
20
0.0000
11
1201.0000
21
0.0000
0
LINE
8
PARAMETRIX
10
1201.0000
20
0.0000
11
1201.0000
21
1601.4000
0
LINE
8
PARAMETRIX
10
1201.0000
20
1601.4000
11
1001.0000
21
1601.4000
0
LINE
8
PARAMETRIX
10
1001.0000
20
1601.4000
11
1001.0000
21
0.0000
0
LINE
8
PARAMETRIX
10
1201.2000
20
0.0000
11
1401.2000
21
0.0000
0
LINE
8
PARAMETRIX
10
1401.2000
20
0.0000
11
1401.2000
21
1601.4000
0
LINE
8
PARAMETRIX
10
1401.2000
20
1601.4000
11
1201.2000
21
1601.4000
0
LINE
8
PARAMETRIX
10
1201.2000
20
1601.4000
11
1201.2000
21
0.0000
0
LINE
8
PARAMETRIX
10
1401.4000
20
0.0000
11
1601.4000
21
0.0000
0
LINE
8
PARAMETRIX
10
1601.4000
20
0.0000
11
1601.4000
21
1601.4000
0
LINE
8
PARAMETRIX
10
1601.4000
20
1601.4000
11
1401.4000
21
1601.4000
0
LINE
8
PARAMETRIX
10
1401.4000
20
1601.4000
11
1401.4000
21
0.0000
0
LINE
8
PARAMETRIX
10
1601.6000
20
0.0000
11
1801.6000
21
0.0000
0
LINE
8
PARAMETRIX
10
1801.6000
20
0.0000
11
1801.6000
21
1601.4000
0
LINE
8
PARAMETRIX
10
1801.6000
20
1601.4000
11
1601.6000
21
1601.4000
0
LINE
8
PARAMETRIX
10
1601.6000
20
1601.4000
11
1601.6000
21
0.0000
0
LINE
8
PARAMETRIX
10
1801.8000
20
0.0000
11
2001.8000
21
0.0000
0
LINE
8
PARAMETRIX
10
2001.8000
20
0.0000
11
2001.8000
21
1601.4000
0
LINE
8
PARAMETRIX
10
2001.8000
20
1601.4000
11
1801.8000
21
1601.4000
0
LINE
8
PARAMETRIX
10
1801.8000
20
1601.4000
11
1801.8000
21
0.0000
0
LINE
8
PARAMETRIX
10
2002.0000
20
0.0000
11
2202.0000
21
0.0000
0
LINE
8
PARAMETRIX
10
2202.0000
20
0.0000
11
2202.0000
21
1601.4000
0
LINE
8
PARAMETRIX
10
2202.0000
20
1601.4000
11
2002.0000
21
1601.4000
0
LINE
8
PARAMETRIX
10
2002.0000
20
1601.4000
11
2002.0000
21
0.0000
0
LINE
8
PARAMETRIX
10
2202.2000
20
0.0000
11
2402.2000
21
0.0000
0
LINE
8
PARAMETRIX
10
2402.2000
20
0.0000
11
2402.2000
21
1601.4000
0
LINE
8
PARAMETRIX
10
2402.2000
20
1601.4000
11
2202.2000
21
1601.4000
0
LINE
8
PARAMETRIX
10
2202.2000
20
1601.4000
11
2202.2000
21
0.0000
0
LINE
8
PARAMETRIX
10
2402.4000
20
0.0000
11
2602.4000
21
0.0000
0
LINE
8
PARAMETRIX
10
2602.4000
20
0.0000
11
2602.4000
21
1601.4000
0
LINE
8
PARAMETRIX
10
2602.4000
20
1601.4000
11
2402.4000
21
1601.4000
0
LINE
8
PARAMETRIX
10
2402.4000
20
1601.4000
11
2402.4000
21
0.0000
0
ENDSEC
0
EOF
