<svg width="63" height="62" viewBox="-27 -27 63 62" xmlns="http://www.w3.org/2000/svg"><path d="M 24.0000 0.0000 A 24.0000 24.0000 0 0 0 23.9034 -2.1513 A 1.9744 1.9744 0 0 0 20.6898 -3.5050 L 20.3765 -3.2496 A 2.5000 2.5000 0 1 1 19.1589 -7.6614 L 19.5588 -7.6030 A 1.9744 1.9744 0 0 0 21.6233 -10.4132 A 24.0000 24.0000 0 0 0 20.6028 -12.3096 A 1.9744 1.9744 0 0 0 17.1201 -12.1348 L 16.9486 -11.7688 A 2.5000 2.5000 0 1 1 13.9374 -15.2154 L 14.3231 -15.3363 A 1.9744 1.9744 0 0 0 14.9638 -18.7640 A 24.0000 24.0000 0 0 0 13.2215 -20.0298 A 1.9744 1.9744 0 0 0 10.1596 -18.3613 L 10.1639 -17.9571 A 2.5000 2.5000 0 1 1 5.9554 -19.7558 L 6.2505 -20.0321 A 1.9744 1.9744 0 0 0 5.3405 -23.3983 A 24.0000 24.0000 0 0 0 3.2216 -23.7828 A 1.9744 1.9744 0 0 0 1.1868 -20.9510 L 1.3660 -20.5887 A 2.5000 2.5000 0 1 1 -3.2061 -20.3833 L -3.0601 -20.7603 A 1.9744 1.9744 0 0 0 -5.3405 -23.3983 A 24.0000 24.0000 0 0 0 -7.4164 -22.8254 A 1.9744 1.9744 0 0 0 -8.0210 -19.3912 L -7.7023 -19.1425 A 2.5000 2.5000 0 1 1 -11.7326 -16.9737 L -11.7646 -17.3766 A 1.9744 1.9744 0 0 0 -14.9638 -18.7640 A 24.0000 24.0000 0 0 0 -16.5855 -17.3471 A 1.9744 1.9744 0 0 0 -15.6402 -13.9906 L -15.2452 -13.9048 A 2.5000 2.5000 0 1 1 -17.9353 -10.2022 L -18.1390 -10.5514 A 1.9744 1.9744 0 0 0 -21.6233 -10.4132 A 24.0000 24.0000 0 0 0 -22.4696 -8.4330 A 1.9744 1.9744 0 0 0 -20.1616 -5.8191 L -19.7685 -5.9132 A 2.5000 2.5000 0 1 1 -20.5857 -1.4100 L -20.9207 -1.6362 A 1.9744 1.9744 0 0 0 -24.0000 -0.0000 A 24.0000 24.0000 0 0 0 -23.9034 2.1513 A 1.9744 1.9744 0 0 0 -20.6898 3.5050 L -20.3765 3.2496 A 2.5000 2.5000 0 1 1 -19.1589 7.6614 L -19.5588 7.6030 A 1.9744 1.9744 0 0 0 -21.6233 10.4132 A 24.0000 24.0000 0 0 0 -20.6028 12.3096 A 1.9744 1.9744 0 0 0 -17.1201 12.1348 L -16.9486 11.7688 A 2.5000 2.5000 0 1 1 -13.9374 15.2154 L -14.3231 15.3363 A 1.9744 1.9744 0 0 0 -14.9638 18.7640 A 24.0000 24.0000 0 0 0 -13.2215 20.0298 A 1.9744 1.9744 0 0 0 -10.1596 18.3613 L -10.1639 17.9571 A 2.5000 2.5000 0 1 1 -5.9554 19.7558 L -6.2505 20.0321 A 1.9744 1.9744 0 0 0 -5.3405 23.3983 A 24.0000 24.0000 0 0 0 -3.2216 23.7828 A 1.9744 1.9744 0 0 0 -1.1868 20.9510 L -1.3660 20.5887 A 2.5000 2.5000 0 1 1 3.2061 20.3833 L 3.0601 20.7603 A 1.9744 1.9744 0 0 0 5.3405 23.3983 A 24.0000 24.0000 0 0 0 7.4164 22.8254 A 1.9744 1.9744 0 0 0 8.0210 19.3912 L 7.7023 19.1425 A 2.5000 2.5000 0 1 1 11.7326 16.9737 L 11.7646 17.3766 A 1.9744 1.9744 0 0 0 14.9638 18.7640 A 24.0000 24.0000 0 0 0 16.5855 17.3471 A 1.9744 1.9744 0 0 0 15.6402 13.9906 L 15.2452 13.9048 A 2.5000 2.5000 0 1 1 17.9353 10.2022 L 18.1390 10.5514 A 1.9744 1.9744 0 0 0 21.6233 10.4132 A 24.0000 24.0000 0 0 0 22.4696 8.4330 A 1.9744 1.9744 0 0 0 20.1616 5.8191 L 19.7685 5.9132 A 2.5000 2.5000 0 1 1 20.5857 1.4100 L 20.9207 1.6362 A 1.9744 1.9744 0 0 0 24.0000 0.0000 Z" stroke="green" stroke-width="1" fill="none" /><path d="M 23.0000 0.0000 A 23.0000 23.0000 0 0 0 22.9074 -2.0617 A 0.9744 0.9744 0 0 0 21.3215 -2.7297 L 21.0081 -2.4744 A 3.5000 3.5000 0 1 1 19.3035 -8.6509 L 19.7035 -8.5924 A 0.9744 0.9744 0 0 0 20.7223 -9.9793 A 23.0000 23.0000 0 0 0 19.7443 -11.7967 A 0.9744 0.9744 0 0 0 18.0256 -11.7104 L 17.8541 -11.3444 A 3.5000 3.5000 0 1 1 13.6384 -16.1697 L 14.0241 -16.2906 A 0.9744 0.9744 0 0 0 14.3403 -17.9821 A 23.0000 23.0000 0 0 0 12.6706 -19.1952 A 0.9744 0.9744 0 0 0 11.1595 -18.3718 L 11.1638 -17.9676 A 3.5000 3.5000 0 1 1 5.2720 -20.4858 L 5.5671 -20.7621 A 0.9744 0.9744 0 0 0 5.1180 -22.4233 A 23.0000 23.0000 0 0 0 3.0874 -22.7918 A 0.9744 0.9744 0 0 0 2.0832 -21.3943 L 2.2624 -21.0320 A 3.5000 3.5000 0 1 1 -4.1386 -20.7445 L -3.9926 -21.1215 A 0.9744 0.9744 0 0 0 -5.1180 -22.4233 A 23.0000 23.0000 0 0 0 -7.1074 -21.8743 A 0.9744 0.9744 0 0 0 -7.4058 -20.1795 L -7.0871 -19.9308 A 3.5000 3.5000 0 1 1 -12.7295 -16.8945 L -12.7615 -17.2975 A 0.9744 0.9744 0 0 0 -14.3403 -17.9821 A 23.0000 23.0000 0 0 0 -15.8944 -16.6243 A 0.9744 0.9744 0 0 0 -15.4279 -14.9679 L -15.0329 -14.8821 A 3.5000 3.5000 0 1 1 -18.7991 -9.6983 L -19.0028 -10.0475 A 0.9744 0.9744 0 0 0 -20.7223 -9.9793 A 23.0000 23.0000 0 0 0 -21.5334 -8.0816 A 0.9744 0.9744 0 0 0 -20.3944 -6.7917 L -20.0013 -6.8857 A 3.5000 3.5000 0 1 1 -21.1453 -0.5813 L -21.4803 -0.8075 A 0.9744 0.9744 0 0 0 -23.0000 -0.0000 A 23.0000 23.0000 0 0 0 -22.9074 2.0617 A 0.9744 0.9744 0 0 0 -21.3215 2.7297 L -21.0081 2.4744 A 3.5000 3.5000 0 1 1 -19.3035 8.6509 L -19.7035 8.5924 A 0.9744 0.9744 0 0 0 -20.7223 9.9793 A 23.0000 23.0000 0 0 0 -19.7443 11.7967 A 0.9744 0.9744 0 0 0 -18.0256 11.7104 L -17.8541 11.3444 A 3.5000 3.5000 0 1 1 -13.6384 16.1697 L -14.0241 16.2906 A 0.9744 0.9744 0 0 0 -14.3403 17.9821 A 23.0000 23.0000 0 0 0 -12.6706 19.1952 A 0.9744 0.9744 0 0 0 -11.1595 18.3718 L -11.1638 17.9676 A 3.5000 3.5000 0 1 1 -5.2720 20.4858 L -5.5671 20.7621 A 0.9744 0.9744 0 0 0 -5.1180 22.4233 A 23.0000 23.0000 0 0 0 -3.0874 22.7918 A 0.9744 0.9744 0 0 0 -2.0832 21.3943 L -2.2624 21.0320 A 3.5000 3.5000 0 1 1 4.1386 20.7445 L 3.9926 21.1215 A 0.9744 0.9744 0 0 0 5.1180 22.4233 A 23.0000 23.0000 0 0 0 7.1074 21.8743 A 0.9744 0.9744 0 0 0 7.4058 20.1795 L 7.0871 19.9308 A 3.5000 3.5000 0 1 1 12.7295 16.8945 L 12.7615 17.2975 A 0.9744 0.9744 0 0 0 14.3403 17.9821 A 23.0000 23.0000 0 0 0 15.8944 16.6243 A 0.9744 0.9744 0 0 0 15.4279 14.9679 L 15.0329 14.8821 A 3.5000 3.5000 0 1 1 18.7991 9.6983 L 19.0028 10.0475 A 0.9744 0.9744 0 0 0 20.7223 9.9793 A 23.0000 23.0000 0 0 0 21.5334 8.0816 A 0.9744 0.9744 0 0 0 20.3944 6.7917 L 20.0013 6.8857 A 3.5000 3.5000 0 1 1 21.1453 0.5813 L 21.4803 0.8075 A 0.9744 0.9744 0 0 0 23.0000 0.0000 Z" stroke="green" stroke-width="1" fill="none" /></svg>