0
SECTION
2
ENTITIES
0
ARC
8
PARAMETRIX
10
0.0000
20
0.0000
40
24.0000
50
360.0000
51
5.1429
0
ARC
8
PARAMETRIX
10
21.9370
20
1.9744
40
1.9744
50
5.1429
51
129.1734
0
LINE
8
PARAMETRIX
10
20.6898
20
3.5050
11
20.3765
21
3.2496
0
ARC
8
PARAMETRIX
10
18.7973
20
5.1877
40
2.5000
50
81.6837
51
309.1734
0
LINE
8
PARAMETRIX
10
19.1589
20
7.6614
11
19.5588
21
7.6030
0
ARC
8
PARAMETRIX
10
19.8444
20
9.5566
40
1.9744
50
261.6837
51
25.7143
0
ARC
8
PARAMETRIX
10
0.0000
20
0.0000
40
24.0000
50
25.7143
51
30.8571
0
ARC
8
PARAMETRIX
10
18.9079
20
11.2969
40
1.9744
50
30.8571
51
154.8877
0
LINE
8
PARAMETRIX
10
17.1201
20
12.1348
11
16.9486
21
11.7688
0
ARC
8
PARAMETRIX
10
14.6849
20
12.8298
40
2.5000
50
107.3980
51
334.8877
0
LINE
8
PARAMETRIX
10
13.9374
20
15.2154
11
14.3231
21
15.3363
0
ARC
8
PARAMETRIX
10
13.7328
20
17.2203
40
1.9744
50
287.3980
51
51.4286
0
ARC
8
PARAMETRIX
10
-0.0000
20
-0.0000
40
24.0000
50
51.4286
51
56.5714
0
ARC
8
PARAMETRIX
10
12.1339
20
18.3820
40
1.9744
50
56.5714
51
180.6020
0
LINE
8
PARAMETRIX
10
10.1596
20
18.3613
11
10.1639
21
17.9571
0
ARC
8
PARAMETRIX
10
7.6640
20
17.9308
40
2.5000
50
133.1123
51
0.6020
0
LINE
8
PARAMETRIX
10
5.9554
20
19.7558
11
6.2505
21
20.0321
0
ARC
8
PARAMETRIX
10
4.9012
20
21.4734
40
1.9744
50
313.1123
51
77.1429
0
ARC
8
PARAMETRIX
10
0.0000
20
0.0000
40
24.0000
50
77.1429
51
82.2857
0
ARC
8
PARAMETRIX
10
2.9566
20
21.8263
40
1.9744
50
82.2857
51
206.3163
0
LINE
8
PARAMETRIX
10
1.1868
20
20.9510
11
1.3660
21
20.5887
0
ARC
8
PARAMETRIX
10
-0.8749
20
19.4804
40
2.5000
50
158.8266
51
26.3163
0
LINE
8
PARAMETRIX
10
-3.2061
20
20.3833
11
-3.0601
21
20.7603
0
ARC
8
PARAMETRIX
10
-4.9012
20
21.4734
40
1.9744
50
338.8266
51
102.8571
0
ARC
8
PARAMETRIX
10
-0.0000
20
0.0000
40
24.0000
50
102.8571
51
108.0000
0
ARC
8
PARAMETRIX
10
-6.8063
20
20.9476
40
1.9744
50
108.0000
51
232.0306
0
LINE
8
PARAMETRIX
10
-8.0210
20
19.3912
11
-7.7023
21
19.1425
0
ARC
8
PARAMETRIX
10
-9.2404
20
17.1716
40
2.5000
50
184.5409
51
52.0306
0
LINE
8
PARAMETRIX
10
-11.7326
20
16.9737
11
-11.7646
21
17.3766
0
ARC
8
PARAMETRIX
10
-13.7328
20
17.2203
40
1.9744
50
4.5409
51
128.5714
0
ARC
8
PARAMETRIX
10
-0.0000
20
0.0000
40
24.0000
50
128.5714
51
133.7143
0
ARC
8
PARAMETRIX
10
-15.2211
20
15.9200
40
1.9744
50
133.7143
51
257.7448
0
LINE
8
PARAMETRIX
10
-15.6402
20
13.9906
11
-15.2452
21
13.9048
0
ARC
8
PARAMETRIX
10
-15.7758
20
11.4618
40
2.5000
50
210.2552
51
77.7448
0
LINE
8
PARAMETRIX
10
-17.9353
20
10.2022
11
-18.1390
21
10.5514
0
ARC
8
PARAMETRIX
10
-19.8444
20
9.5566
40
1.9744
50
30.2552
51
154.2857
0
ARC
8
PARAMETRIX
10
0.0000
20
-0.0000
40
24.0000
50
154.2857
51
159.4286
0
ARC
8
PARAMETRIX
10
-20.6212
20
7.7393
40
1.9744
50
159.4286
51
283.4591
0
LINE
8
PARAMETRIX
10
-20.1616
20
5.8191
11
-19.7685
21
5.9132
0
ARC
8
PARAMETRIX
10
-19.1866
20
3.4819
40
2.5000
50
235.9694
51
103.4591
0
LINE
8
PARAMETRIX
10
-20.5857
20
1.4100
11
-20.9207
21
1.6362
0
ARC
8
PARAMETRIX
10
-22.0256
20
0.0000
40
1.9744
50
55.9694
51
180.0000
0
ARC
8
PARAMETRIX
10
-0.0000
20
-0.0000
40
24.0000
50
180.0000
51
185.1429
0
ARC
8
PARAMETRIX
10
-21.9370
20
-1.9744
40
1.9744
50
185.1429
51
309.1734
0
LINE
8
PARAMETRIX
10
-20.6898
20
-3.5050
11
-20.3765
21
-3.2496
0
ARC
8
PARAMETRIX
10
-18.7973
20
-5.1877
40
2.5000
50
261.6837
51
129.1734
0
LINE
8
PARAMETRIX
10
-19.1589
20
-7.6614
11
-19.5588
21
-7.6030
0
ARC
8
PARAMETRIX
10
-19.8444
20
-9.5566
40
1.9744
50
81.6837
51
205.7143
0
ARC
8
PARAMETRIX
10
0.0000
20
0.0000
40
24.0000
50
205.7143
51
210.8571
0
ARC
8
PARAMETRIX
10
-18.9079
20
-11.2969
40
1.9744
50
210.8571
51
334.8877
0
LINE
8
PARAMETRIX
10
-17.1201
20
-12.1348
11
-16.9486
21
-11.7688
0
ARC
8
PARAMETRIX
10
-14.6849
20
-12.8298
40
2.5000
50
287.3980
51
154.8877
0
LINE
8
PARAMETRIX
10
-13.9374
20
-15.2154
11
-14.3231
21
-15.3363
0
ARC
8
PARAMETRIX
10
-13.7328
20
-17.2203
40
1.9744
50
107.3980
51
231.4286
0
ARC
8
PARAMETRIX
10
0.0000
20
0.0000
40
24.0000
50
231.4286
51
236.5714
0
ARC
8
PARAMETRIX
10
-12.1339
20
-18.3820
40
1.9744
50
236.5714
51
0.6020
0
LINE
8
PARAMETRIX
10
-10.1596
20
-18.3613
11
-10.1639
21
-17.9571
0
ARC
8
PARAMETRIX
10
-7.6640
20
-17.9308
40
2.5000
50
313.1123
51
180.6020
0
LINE
8
PARAMETRIX
10
-5.9554
20
-19.7558
11
-6.2505
21
-20.0321
0
ARC
8
PARAMETRIX
10
-4.9012
20
-21.4734
40
1.9744
50
133.1123
51
257.1429
0
ARC
8
PARAMETRIX
10
-0.0000
20
0.0000
40
24.0000
50
257.1429
51
262.2857
0
ARC
8
PARAMETRIX
10
-2.9566
20
-21.8263
40
1.9744
50
262.2857
51
26.3163
0
LINE
8
PARAMETRIX
10
-1.1868
20
-20.9510
11
-1.3660
21
-20.5887
0
ARC
8
PARAMETRIX
10
0.8749
20
-19.4804
40
2.5000
50
338.8266
51
206.3163
0
LINE
8
PARAMETRIX
10
3.2061
20
-20.3833
11
3.0601
21
-20.7603
0
ARC
8
PARAMETRIX
10
4.9012
20
-21.4734
40
1.9744
50
158.8266
51
282.8571
0
ARC
8
PARAMETRIX
10
0.0000
20
-0.0000
40
24.0000
50
282.8571
51
288.0000
0
ARC
8
PARAMETRIX
10
6.8063
20
-20.9476
40
1.9744
50
288.0000
51
52.0306
0
LINE
8
PARAMETRIX
10
8.0210
20
-19.3912
11
7.7023
21
-19.1425
0
ARC
8
PARAMETRIX
10
9.2404
20
-17.1716
40
2.5000
50
4.5409
51
232.0306
0
LINE
8
PARAMETRIX
10
11.7326
20
-16.9737
11
11.7646
21
-17.3766
0
ARC
8
PARAMETRIX
10
13.7328
20
-17.2203
40
1.9744
50
184.5409
51
308.5714
0
ARC
8
PARAMETRIX
10
0.0000
20
-0.0000
40
24.0000
50
308.5714
51
313.7143
0
ARC
8
PARAMETRIX
10
15.2211
20
-15.9200
40
1.9744
50
313.7143
51
77.7448
0
LINE
8
PARAMETRIX
10
15.6402
20
-13.9906
11
15.2452
21
-13.9048
0
ARC
8
PARAMETRIX
10
15.7758
20
-11.4618
40
2.5000
50
30.2552
51
257.7448
0
LINE
8
PARAMETRIX
10
17.9353
20
-10.2022
11
18.1390
21
-10.5514
0
ARC
8
PARAMETRIX
10
19.8444
20
-9.5566
40
1.9744
50
210.2552
51
334.2857
0
ARC
8
PARAMETRIX
10
-0.0000
20
0.0000
40
24.0000
50
334.2857
51
339.4286
0
ARC
8
PARAMETRIX
10
20.6212
20
-7.7393
40
1.9744
50
339.4286
51
103.4591
0
LINE
8
PARAMETRIX
10
20.1616
20
-5.8191
11
19.7685
21
-5.9132
0
ARC
8
PARAMETRIX
10
19.1866
20
-3.4819
40
2.5000
50
55.9694
51
283.4591
0
LINE
8
PARAMETRIX
10
20.5857
20
-1.4100
11
20.9207
21
-1.6362
0
ARC
8
PARAMETRIX
10
22.0256
20
-0.0000
40
1.9744
50
235.9694
51
360.0000
0
ARC
8
PARAMETRIX
10
0.0000
20
0.0000
40
23.0000
50
360.0000
51
5.1429
0
ARC
8
PARAMETRIX
10
21.9370
20
1.9744
40
0.9744
50
5.1429
51
129.1734
0
LINE
8
PARAMETRIX
10
21.3215
20
2.7297
11
21.0081
21
2.4744
0
ARC
8
PARAMETRIX
10
18.7973
20
5.1877
40
3.5000
50
81.6837
51
309.1734
0
LINE
8
PARAMETRIX
10
19.3035
20
8.6509
11
19.7035
21
8.5924
0
ARC
8
PARAMETRIX
10
19.8444
20
9.5566
40
0.9744
50
261.6837
51
25.7143
0
ARC
8
PARAMETRIX
10
-0.0000
20
-0.0000
40
23.0000
50
25.7143
51
30.8571
0
ARC
8
PARAMETRIX
10
18.9079
20
11.2969
40
0.9744
50
30.8571
51
154.8877
0
LINE
8
PARAMETRIX
10
18.0256
20
11.7104
11
17.8541
21
11.3444
0
ARC
8
PARAMETRIX
10
14.6849
20
12.8298
40
3.5000
50
107.3980
51
334.8877
0
LINE
8
PARAMETRIX
10
13.6384
20
16.1697
11
14.0241
21
16.2906
0
ARC
8
PARAMETRIX
10
13.7328
20
17.2203
40
0.9744
50
287.3980
51
51.4286
0
ARC
8
PARAMETRIX
10
0.0000
20
0.0000
40
23.0000
50
51.4286
51
56.5714
0
ARC
8
PARAMETRIX
10
12.1339
20
18.3820
40
0.9744
50
56.5714
51
180.6020
0
LINE
8
PARAMETRIX
10
11.1595
20
18.3718
11
11.1638
21
17.9676
0
ARC
8
PARAMETRIX
10
7.6640
20
17.9308
40
3.5000
50
133.1123
51
0.6020
0
LINE
8
PARAMETRIX
10
5.2720
20
20.4858
11
5.5671
21
20.7621
0
ARC
8
PARAMETRIX
10
4.9012
20
21.4734
40
0.9744
50
313.1123
51
77.1429
0
ARC
8
PARAMETRIX
10
0.0000
20
0.0000
40
23.0000
50
77.1429
51
82.2857
0
ARC
8
PARAMETRIX
10
2.9566
20
21.8263
40
0.9744
50
82.2857
51
206.3163
0
LINE
8
PARAMETRIX
10
2.0832
20
21.3943
11
2.2624
21
21.0320
0
ARC
8
PARAMETRIX
10
-0.8749
20
19.4804
40
3.5000
50
158.8266
51
26.3163
0
LINE
8
PARAMETRIX
10
-4.1386
20
20.7445
11
-3.9926
21
21.1215
0
ARC
8
PARAMETRIX
10
-4.9012
20
21.4734
40
0.9744
50
338.8266
51
102.8571
0
ARC
8
PARAMETRIX
10
-0.0000
20
0.0000
40
23.0000
50
102.8571
51
108.0000
0
ARC
8
PARAMETRIX
10
-6.8063
20
20.9476
40
0.9744
50
108.0000
51
232.0306
0
LINE
8
PARAMETRIX
10
-7.4058
20
20.1795
11
-7.0871
21
19.9308
0
ARC
8
PARAMETRIX
10
-9.2404
20
17.1716
40
3.5000
50
184.5409
51
52.0306
0
LINE
8
PARAMETRIX
10
-12.7295
20
16.8945
11
-12.7615
21
17.2975
0
ARC
8
PARAMETRIX
10
-13.7328
20
17.2203
40
0.9744
50
4.5409
51
128.5714
0
ARC
8
PARAMETRIX
10
0.0000
20
-0.0000
40
23.0000
50
128.5714
51
133.7143
0
ARC
8
PARAMETRIX
10
-15.2211
20
15.9200
40
0.9744
50
133.7143
51
257.7448
0
LINE
8
PARAMETRIX
10
-15.4279
20
14.9679
11
-15.0329
21
14.8821
0
ARC
8
PARAMETRIX
10
-15.7758
20
11.4618
40
3.5000
50
210.2552
51
77.7448
0
LINE
8
PARAMETRIX
10
-18.7991
20
9.6983
11
-19.0028
21
10.0475
0
ARC
8
PARAMETRIX
10
-19.8444
20
9.5566
40
0.9744
50
30.2552
51
154.2857
0
ARC
8
PARAMETRIX
10
-0.0000
20
0.0000
40
23.0000
50
154.2857
51
159.4286
0
ARC
8
PARAMETRIX
10
-20.6212
20
7.7393
40
0.9744
50
159.4286
51
283.4591
0
LINE
8
PARAMETRIX
10
-20.3944
20
6.7917
11
-20.0013
21
6.8857
0
ARC
8
PARAMETRIX
10
-19.1866
20
3.4819
40
3.5000
50
235.9694
51
103.4591
0
LINE
8
PARAMETRIX
10
-21.1453
20
0.5813
11
-21.4803
21
0.8075
0
ARC
8
PARAMETRIX
10
-22.0256
20
0.0000
40
0.9744
50
55.9694
51
180.0000
0
ARC
8
PARAMETRIX
10
-0.0000
20
-0.0000
40
23.0000
50
180.0000
51
185.1429
0
ARC
8
PARAMETRIX
10
-21.9370
20
-1.9744
40
0.9744
50
185.1429
51
309.1734
0
LINE
8
PARAMETRIX
10
-21.3215
20
-2.7297
11
-21.0081
21
-2.4744
0
ARC
8
PARAMETRIX
10
-18.7973
20
-5.1877
40
3.5000
50
261.6837
51
129.1734
0
LINE
8
PARAMETRIX
10
-19.3035
20
-8.6509
11
-19.7035
21
-8.5924
0
ARC
8
PARAMETRIX
10
-19.8444
20
-9.5566
40
0.9744
50
81.6837
51
205.7143
0
ARC
8
PARAMETRIX
10
-0.0000
20
-0.0000
40
23.0000
50
205.7143
51
210.8571
0
ARC
8
PARAMETRIX
10
-18.9079
20
-11.2969
40
0.9744
50
210.8571
51
334.8877
0
LINE
8
PARAMETRIX
10
-18.0256
20
-11.7104
11
-17.8541
21
-11.3444
0
ARC
8
PARAMETRIX
10
-14.6849
20
-12.8298
40
3.5000
50
287.3980
51
154.8877
0
LINE
8
PARAMETRIX
10
-13.6384
20
-16.1697
11
-14.0241
21
-16.2906
0
ARC
8
PARAMETRIX
10
-13.7328
20
-17.2203
40
0.9744
50
107.3980
51
231.4286
0
ARC
8
PARAMETRIX
10
-0.0000
20
-0.0000
40
23.0000
50
231.4286
51
236.5714
0
ARC
8
PARAMETRIX
10
-12.1339
20
-18.3820
40
0.9744
50
236.5714
51
0.6020
0
LINE
8
PARAMETRIX
10
-11.1595
20
-18.3718
11
-11.1638
21
-17.9676
0
ARC
8
PARAMETRIX
10
-7.6640
20
-17.9308
40
3.5000
50
313.1123
51
180.6020
0
LINE
8
PARAMETRIX
10
-5.2720
20
-20.4858
11
-5.5671
21
-20.7621
0
ARC
8
PARAMETRIX
10
-4.9012
20
-21.4734
40
0.9744
50
133.1123
51
257.1429
0
ARC
8
PARAMETRIX
10
-0.0000
20
-0.0000
40
23.0000
50
257.1429
51
262.2857
0
ARC
8
PARAMETRIX
10
-2.9566
20
-21.8263
40
0.9744
50
262.2857
51
26.3163
0
LINE
8
PARAMETRIX
10
-2.0832
20
-21.3943
11
-2.2624
21
-21.0320
0
ARC
8
PARAMETRIX
10
0.8749
20
-19.4804
40
3.5000
50
338.8266
51
206.3163
0
LINE
8
PARAMETRIX
10
4.1386
20
-20.7445
11
3.9926
21
-21.1215
0
ARC
8
PARAMETRIX
10
4.9012
20
-21.4734
40
0.9744
50
158.8266
51
282.8571
0
ARC
8
PARAMETRIX
10
0.0000
20
-0.0000
40
23.0000
50
282.8571
51
288.0000
0
ARC
8
PARAMETRIX
10
6.8063
20
-20.9476
40
0.9744
50
288.0000
51
52.0306
0
LINE
8
PARAMETRIX
10
7.4058
20
-20.1795
11
7.0871
21
-19.9308
0
ARC
8
PARAMETRIX
10
9.2404
20
-17.1716
40
3.5000
50
4.5409
51
232.0306
0
LINE
8
PARAMETRIX
10
12.7295
20
-16.8945
11
12.7615
21
-17.2975
0
ARC
8
PARAMETRIX
10
13.7328
20
-17.2203
40
0.9744
50
184.5409
51
308.5714
0
ARC
8
PARAMETRIX
10
0.0000
20
-0.0000
40
23.0000
50
308.5714
51
313.7143
0
ARC
8
PARAMETRIX
10
15.2211
20
-15.9200
40
0.9744
50
313.7143
51
77.7448
0
LINE
8
PARAMETRIX
10
15.4279
20
-14.9679
11
15.0329
21
-14.8821
0
ARC
8
PARAMETRIX
10
15.7758
20
-11.4618
40
3.5000
50
30.2552
51
257.7448
0
LINE
8
PARAMETRIX
10
18.7991
20
-9.6983
11
19.0028
21
-10.0475
0
ARC
8
PARAMETRIX
10
19.8444
20
-9.5566
40
0.9744
50
210.2552
51
334.2857
0
ARC
8
PARAMETRIX
10
0.0000
20
-0.0000
40
23.0000
50
334.2857
51
339.4286
0
ARC
8
PARAMETRIX
10
20.6212
20
-7.7393
40
0.9744
50
339.4286
51
103.4591
0
LINE
8
PARAMETRIX
10
20.3944
20
-6.7917
11
20.0013
21
-6.8857
0
ARC
8
PARAMETRIX
10
19.1866
20
-3.4819
40
3.5000
50
55.9694
51
283.4591
0
LINE
8
PARAMETRIX
10
21.1453
20
-0.5813
11
21.4803
21
-0.8075
0
ARC
8
PARAMETRIX
10
22.0256
20
-0.0000
40
0.9744
50
235.9694
51
0.0000
0
ENDSEC
0
EOF
